<?xml version="1.0" encoding="UTF-8" standalone="no"?>
<!DOCTYPE svg PUBLIC "-//W3C//DTD SVG 1.1//EN" "http://www.w3.org/Graphics/SVG/1.1/DTD/svg11.dtd"
[
<!ATTLIST g
  xmlns:vectornator CDATA #FIXED "http://vectornator.io"
  vectornator:layerName CDATA #IMPLIED >
<!ATTLIST g
  xmlns:vectornator CDATA #FIXED "http://vectornator.io"
  vectornator:mask CDATA #IMPLIED >
<!ATTLIST text
  xmlns:vectornator CDATA #FIXED "http://vectornator.io"
  vectornator:width CDATA #IMPLIED >

<!ATTLIST path
  xmlns:vectornator CDATA #FIXED "http://vectornator.io"
  vectornator:blendMode CDATA #IMPLIED >
<!ATTLIST path
  xmlns:vectornator CDATA #FIXED "http://vectornator.io"
  vectornator:shadowColor CDATA #IMPLIED >
<!ATTLIST path
  xmlns:vectornator CDATA #FIXED "http://vectornator.io"
  vectornator:shadowOpacity CDATA #IMPLIED >
<!ATTLIST path
  xmlns:vectornator CDATA #FIXED "http://vectornator.io"
  vectornator:shadowRadius CDATA #IMPLIED >
<!ATTLIST path
  xmlns:vectornator CDATA #FIXED "http://vectornator.io"
  vectornator:shadowOffset CDATA #IMPLIED >
<!ATTLIST path
  xmlns:vectornator CDATA #FIXED "http://vectornator.io"
  vectornator:shadowAngle CDATA #IMPLIED >

<!ATTLIST image
  xmlns:vectornator CDATA #FIXED "http://vectornator.io"
  vectornator:blendMode CDATA #IMPLIED >
<!ATTLIST image
  xmlns:vectornator CDATA #FIXED "http://vectornator.io"
  vectornator:shadowColor CDATA #IMPLIED >
<!ATTLIST image
  xmlns:vectornator CDATA #FIXED "http://vectornator.io"
  vectornator:shadowOpacity CDATA #IMPLIED >
<!ATTLIST image
  xmlns:vectornator CDATA #FIXED "http://vectornator.io"
  vectornator:shadowRadius CDATA #IMPLIED >
<!ATTLIST image
  xmlns:vectornator CDATA #FIXED "http://vectornator.io"
  vectornator:shadowOffset CDATA #IMPLIED >
<!ATTLIST image
  xmlns:vectornator CDATA #FIXED "http://vectornator.io"
  vectornator:shadowAngle CDATA #IMPLIED >

<!ATTLIST g
  xmlns:vectornator CDATA #FIXED "http://vectornator.io"
  vectornator:blendMode CDATA #IMPLIED >
<!ATTLIST g
  xmlns:vectornator CDATA #FIXED "http://vectornator.io"
  vectornator:shadowColor CDATA #IMPLIED >
<!ATTLIST g
  xmlns:vectornator CDATA #FIXED "http://vectornator.io"
  vectornator:shadowOpacity CDATA #IMPLIED >
<!ATTLIST g
  xmlns:vectornator CDATA #FIXED "http://vectornator.io"
  vectornator:shadowRadius CDATA #IMPLIED >
<!ATTLIST g
  xmlns:vectornator CDATA #FIXED "http://vectornator.io"
  vectornator:shadowOffset CDATA #IMPLIED >
<!ATTLIST g
  xmlns:vectornator CDATA #FIXED "http://vectornator.io"
  vectornator:shadowAngle CDATA #IMPLIED >

<!ENTITY % SVG.filter.extra.content  "| feDropShadow" >
<!ELEMENT feDropShadow EMPTY>
<!ATTLIST feDropShadow
  xmlns:svg CDATA #FIXED "http://www.w3.org/Graphics/SVG/1.1/DTD/svg11.dtd"
  dx CDATA #IMPLIED>
<!ATTLIST feDropShadow
  xmlns:svg CDATA #FIXED "http://www.w3.org/Graphics/SVG/1.1/DTD/svg11.dtd"
  dy CDATA #IMPLIED>
<!ATTLIST feDropShadow
  xmlns:svg CDATA #FIXED "http://www.w3.org/Graphics/SVG/1.1/DTD/svg11.dtd"
  stdDeviation CDATA #IMPLIED>
<!ATTLIST feDropShadow
  xmlns:svg CDATA #FIXED "http://www.w3.org/Graphics/SVG/1.1/DTD/svg11.dtd"
  flood-opacity CDATA #IMPLIED>
<!ATTLIST feDropShadow
  xmlns:svg CDATA #FIXED "http://www.w3.org/Graphics/SVG/1.1/DTD/svg11.dtd"
  in CDATA #IMPLIED>
<!ATTLIST feDropShadow
  xmlns:svg CDATA #FIXED "http://www.w3.org/Graphics/SVG/1.1/DTD/svg11.dtd"
  result CDATA #IMPLIED>
<!ATTLIST feDropShadow
  xmlns:svg CDATA #FIXED "http://www.w3.org/Graphics/SVG/1.1/DTD/svg11.dtd"
  flood-color CDATA #IMPLIED>
]
>
<!-- Created with Vectornator (http://vectornator.io/) -->
<svg height="100%" stroke-miterlimit="10" style="fill-rule:nonzero;clip-rule:evenodd;stroke-linecap:round;stroke-linejoin:round;" version="1.1" viewBox="0 0 3024 4032" width="100%" xml:space="preserve" xmlns="http://www.w3.org/2000/svg" xmlns:vectornator="http://vectornator.io" xmlns:xlink="http://www.w3.org/1999/xlink">
<defs/>
<g id="Layer-2" vectornator:layerName="Layer 2">
<g opacity="1">
<path d="M719.294 2632.09C719.294 2503.33 762.078 2338.17 811.589 2263.75C819.273 2252.2 730.512 2149.32 759.261 1831.66C771.212 1699.61 855.269 1576.37 867.491 1527.28C881.297 1471.82 775.085 967.666 815.133 949.576C936.951 894.549 1238.92 1233.17 1309.04 1313.41C1336.19 1344.47 1359.54 1318.78 1505.52 1315.02C1648.78 1311.32 1688.28 1336.57 1705.39 1311.27C1755.59 1237.07 2091.68 901.388 2221.37 950.528C2236.14 956.125 2231.92 985.046 2227.2 995.97C2158.33 1155.45 2137 1332.98 2120.78 1540.47C2115.55 1607.37 2151.16 1623.05 2175.24 1759.17C2203.67 1919.89 2222.27 1988.72 2167.95 2249.79C2150.67 2332.82 2115.92 2320.48 2126.13 2350.51C2150.27 2421.52 2263.03 2688.3 2290.6 2748.11" fill="#ffffff" fill-opacity="0" fill-rule="evenodd" stroke="none"/>
<path d="M844.594 919.531C834.463 919.584 824.384 920.948 814.656 924.062C809.333 925.767 803.841 927.77 799.344 931.156C787.617 939.988 784.333 955.559 782.969 969.344C781.822 980.93 781.866 992.655 782.219 1004.28C782.63 1017.83 783.547 1031.37 784.688 1044.88C786.45 1065.74 788.765 1086.56 791.281 1107.34C794.41 1133.19 797.919 1159 801.562 1184.78C811.276 1253.51 822.158 1322.05 831.875 1390.78C835.987 1419.86 839.998 1449.01 842.781 1478.25C843.697 1487.87 844.511 1497.49 844.781 1507.16C844.872 1510.42 844.9 1513.71 844.75 1516.97C844.681 1518.47 844.602 1519.99 844.312 1521.47C843.986 1523.13 843.398 1524.8 842.875 1526.41C841.913 1529.37 840.833 1532.29 839.688 1535.19C836.287 1543.78 832.398 1552.17 828.469 1560.53C818.307 1582.15 807.653 1603.51 797.625 1625.19C770.146 1684.59 746.28 1746.8 737.5 1812.03C735.668 1825.65 734.63 1839.34 733.594 1853.03C731.984 1874.29 730.872 1895.59 730.25 1916.91C728.27 1984.73 731.38 2053.05 743.688 2119.88C749.848 2153.32 758.422 2186.38 770.094 2218.34C773.891 2228.74 778.038 2238.99 782.344 2249.19C783.727 2252.46 785.103 2255.74 786.438 2259.03C785.405 2260.72 784.373 2262.41 783.375 2264.12C778.486 2272.51 773.991 2281.13 769.781 2289.88C757.053 2316.32 746.808 2343.91 737.969 2371.88C725.112 2412.54 715.235 2454.19 708.031 2496.22C700.346 2541.07 695.676 2586.47 695.531 2632C695.489 2645.13 706.092 2655.8 719.219 2655.84C732.345 2655.89 743.02 2645.28 743.062 2632.16C743.213 2586.42 748.251 2540.79 756.406 2495.81C763.815 2454.96 773.756 2414.42 786.938 2375.03C795.429 2349.65 805.155 2324.56 817.5 2300.78C820.557 2294.89 823.78 2289.09 827.25 2283.44C828.156 2281.96 829.059 2280.48 830 2279.03C830.569 2278.15 831.205 2277.32 831.719 2276.41C832.404 2275.19 833.145 2273.97 833.688 2272.69C834.261 2271.33 834.694 2269.93 835.062 2268.5C835.364 2267.33 835.546 2266.13 835.688 2264.94C835.807 2263.93 835.834 2262.89 835.844 2261.88C835.894 2256.7 834.485 2251.67 832.75 2246.84C831.006 2241.99 828.943 2237.25 826.938 2232.5C821.054 2218.58 815.48 2204.55 810.656 2190.22C796.621 2148.52 788.101 2105.1 783.125 2061.44C776.85 2006.38 776.158 1950.82 778.719 1895.5C779.411 1880.55 780.377 1865.6 781.562 1850.69C782.523 1838.61 783.53 1826.53 785.281 1814.53C788.288 1793.94 792.995 1773.62 798.844 1753.66C810.409 1714.17 826.438 1676.15 843.875 1638.94C850.524 1624.75 857.38 1610.68 864.188 1596.56C869.58 1585.38 874.958 1574.2 879.906 1562.81C882.987 1555.72 885.92 1548.54 888.312 1541.19C889.736 1536.81 891.017 1532.37 891.688 1527.81C892.655 1521.23 892.724 1514.51 892.594 1507.88C892.439 1499.95 891.916 1492.05 891.281 1484.16C889.462 1461.53 886.63 1438.97 883.656 1416.47C878.964 1380.96 873.72 1345.52 868.438 1310.09C861.517 1263.69 854.497 1217.28 848 1170.81C844.603 1146.51 841.371 1122.21 838.469 1097.84C835.845 1075.82 833.455 1053.75 831.812 1031.62C830.714 1016.83 829.857 1001.97 830.125 987.125C830.22 981.885 830.443 976.637 831.125 971.438C831.22 970.712 831.38 970.003 831.5 969.281C834.225 968.573 837.012 968.08 839.812 967.844C849.2 967.051 858.702 968.435 867.812 970.656C879.729 973.562 891.238 977.997 902.375 983.094C917.01 989.791 931.089 997.694 944.75 1006.19C977.565 1026.59 1008.25 1050.33 1037.84 1075.12C1076.3 1107.35 1112.96 1141.72 1148.53 1177.09C1184.62 1212.98 1219.57 1249.96 1253.69 1287.72C1263.71 1298.81 1273.66 1309.99 1283.53 1321.22C1287.43 1325.65 1291.19 1330.24 1295.41 1334.38C1299.53 1338.41 1304.09 1342.01 1309.12 1344.84C1315.14 1348.23 1321.74 1350.48 1328.53 1351.69C1339.5 1353.64 1350.76 1352.97 1361.78 1351.88C1379.25 1350.14 1396.61 1347.49 1414.06 1345.56C1442.46 1342.42 1470.98 1340.5 1499.53 1339.62C1536.39 1338.49 1573.26 1339.16 1610.03 1342C1620.23 1342.79 1630.42 1343.75 1640.59 1344.72C1649.28 1345.54 1657.95 1346.4 1666.66 1346.88C1680.79 1347.65 1695.69 1347.41 1708.5 1340.62C1713.34 1338.06 1717.68 1334.63 1721.34 1330.56C1723.78 1327.86 1725.76 1324.85 1727.88 1321.91C1730.09 1318.82 1732.4 1315.8 1734.75 1312.81C1747.14 1297.1 1760.61 1282.19 1774.22 1267.53C1797.14 1242.86 1820.95 1219 1845.31 1195.75C1869.08 1173.07 1893.39 1150.93 1918.34 1129.56C1952.66 1100.18 1987.99 1071.93 2025.09 1046.12C2050.95 1028.14 2077.66 1011.22 2105.81 997.031C2118.66 990.553 2131.85 984.629 2145.44 979.875C2155.39 976.394 2165.58 973.493 2176 971.812C2184.25 970.482 2192.74 969.9 2201.06 970.938C2202.99 971.178 2204.89 971.619 2206.78 972.062C2206.79 972.406 2206.82 972.751 2206.81 973.094C2206.74 976.449 2206.24 979.813 2205.41 983.062C2204.45 986.807 2202.65 990.297 2201.16 993.844C2198.82 999.397 2196.52 1004.97 2194.28 1010.56C2178.17 1050.8 2164.96 1092.2 2153.97 1134.12C2127.35 1235.69 2113.88 1340.21 2103.94 1444.56C2101.67 1468.33 2099.61 1492.11 2097.69 1515.91C2097.21 1521.83 2096.75 1527.73 2096.28 1533.66C2095.91 1538.37 2095.52 1543.08 2095.38 1547.81C2095.13 1555.73 2095.42 1563.69 2096.31 1571.56C2097.28 1580.09 2098.98 1588.5 2101.25 1596.78C2104.61 1609.05 2109.13 1620.95 2113.69 1632.81C2118.08 1644.25 2122.48 1655.69 2126.44 1667.28C2131.22 1681.27 2135.41 1695.44 2139.09 1709.75C2146.81 1739.77 2151.83 1770.35 2157.28 1800.84C2163.33 1834.63 2169.35 1868.47 2173.22 1902.59C2175.5 1922.7 2177 1942.92 2177.53 1963.16C2179.23 2027.87 2171.21 2092.44 2160.34 2156.12C2156.31 2179.75 2151.84 2203.29 2147.09 2226.78C2143.52 2244.48 2140.25 2262.38 2133.09 2279.06C2130.01 2286.26 2126.2 2293.13 2121.38 2299.31C2116.84 2305.12 2111.41 2310.21 2107.22 2316.28C2101.88 2324.01 2098.95 2333.06 2099.25 2342.47C2099.52 2350.74 2102.29 2358.42 2105.03 2366.12C2107.78 2373.85 2110.68 2381.55 2113.59 2389.22C2124.55 2418.04 2136.05 2446.65 2147.66 2475.22C2170.77 2532.1 2194.48 2588.75 2218.5 2645.25C2227.96 2667.5 2237.46 2689.73 2247.09 2711.91C2253.88 2727.52 2260.67 2743.12 2267.78 2758.59C2272.13 2768.04 2281.63 2773.52 2291.41 2773.22C2294.67 2773.12 2297.94 2772.36 2301.09 2770.91C2313.69 2765.11 2319.2 2750.22 2313.41 2737.62C2305.87 2721.25 2298.71 2704.69 2291.53 2688.16C2281.11 2664.14 2270.82 2640.1 2260.59 2616C2235.41 2556.67 2210.54 2497.15 2186.44 2437.38C2177.37 2414.9 2168.41 2392.38 2159.81 2369.72C2157.4 2363.35 2155.02 2357 2152.72 2350.59C2152 2348.6 2151.29 2346.59 2150.59 2344.59C2150.4 2344.02 2150.23 2343.42 2150.03 2342.84C2151.05 2341.65 2152.11 2340.46 2153.16 2339.28C2158 2333.83 2162.61 2328.2 2166.66 2322.12C2177.54 2305.79 2184.5 2287.18 2189.38 2268.25C2192.14 2257.51 2194.21 2246.59 2196.41 2235.72C2203.93 2198.45 2210.74 2161.03 2216.22 2123.41C2225.08 2062.57 2230.14 2001.2 2226.59 1939.72C2223.82 1891.6 2215.81 1844.05 2207.34 1796.66C2205.44 1786.01 2203.52 1775.36 2201.62 1764.72C2199.79 1754.43 2197.95 1744.12 2195.88 1733.88C2192.72 1718.32 2189.13 1702.87 2184.94 1687.56C2179.07 1666.15 2171.91 1645.18 2164 1624.44C2160.86 1616.2 2157.61 1607.98 2154.62 1599.69C2151.3 1590.47 2148.33 1581.09 2146.72 1571.41C2145.6 1564.66 2145.13 1557.81 2145.25 1550.97C2145.39 1543.28 2146.2 1535.6 2146.81 1527.94C2153.1 1449.71 2160.35 1371.47 2172.28 1293.88C2182.34 1228.47 2195.72 1163.48 2215.28 1100.22C2222.33 1077.41 2230.18 1054.84 2238.91 1032.62C2241.31 1026.5 2243.79 1020.41 2246.34 1014.34C2248.07 1010.24 2249.99 1006.17 2251.47 1001.97C2253.04 997.514 2254.15 992.898 2254.97 988.25C2257.76 972.341 2257.16 953.927 2247.25 940.438C2244.06 936.101 2240.01 932.429 2235.31 929.781C2231.09 927.397 2226.35 925.871 2221.69 924.594C2213.1 922.244 2204.23 921.11 2195.34 920.906C2177.18 920.489 2159.07 923.901 2141.72 929.062C2116.8 936.474 2093.01 947.471 2070.19 959.812C2050.33 970.549 2031.13 982.453 2012.38 995C1987.86 1011.4 1964.13 1028.92 1940.94 1047.12C1913.87 1068.37 1887.59 1090.6 1861.91 1113.5C1837.42 1135.33 1813.46 1157.78 1790.09 1180.81C1763.15 1207.38 1736.75 1234.65 1712.06 1263.34C1704.92 1271.65 1697.89 1280.08 1691.31 1288.84C1689.85 1290.79 1688.43 1292.76 1687.03 1294.75C1686.42 1295.62 1685.82 1296.47 1685.22 1297.34C1685.21 1297.36 1685.2 1297.36 1685.19 1297.38C1684.08 1297.75 1682.82 1297.9 1681.69 1298C1679.25 1298.21 1676.79 1298.21 1674.34 1298.16C1666.61 1297.99 1658.89 1297.24 1651.19 1296.53C1639.63 1295.47 1628.07 1294.35 1616.5 1293.44C1602.67 1292.35 1588.83 1291.5 1574.97 1290.97C1550.85 1290.04 1526.72 1289.98 1502.59 1290.66C1479.49 1291.3 1456.4 1292.58 1433.38 1294.62C1418.19 1295.97 1403.03 1297.69 1387.91 1299.59C1376.16 1301.07 1364.42 1302.82 1352.62 1303.78C1348.71 1304.1 1344.77 1304.35 1340.84 1304.16C1338.68 1304.05 1336.41 1303.84 1334.38 1303.06C1330.99 1301.77 1328.56 1298.76 1326.25 1296.12C1325.05 1294.76 1323.85 1293.4 1322.66 1292.03C1316.54 1285.07 1310.39 1278.13 1304.22 1271.22C1280.13 1244.25 1255.64 1217.64 1230.62 1191.53C1183.05 1141.89 1133.86 1093.61 1081.62 1048.84C1061.39 1031.51 1040.71 1014.7 1019.31 998.812C1001.43 985.534 983.027 972.897 963.938 961.406C948.611 952.181 932.808 943.686 916.375 936.594C902.961 930.805 889.08 925.921 874.781 922.844C864.894 920.716 854.725 919.479 844.594 919.531Z" fill="#000000" stroke="none"/>
</g>
<g opacity="1">
<path d="M1111.89 1456.1C1106.95 1442.51 1061.02 1360.28 1052.46 1355.85C1050.98 1355.08 1015.53 1405.05 1009.48 1388.41C1005.45 1377.31 1047.88 1306.03 1040.82 1299.07C1036.05 1294.38 966.546 1333.72 965.032 1326.27C963.83 1320.34 963.523 1311.53 965.556 1305.86C972.164 1287.45 987.908 1270.11 994.088 1258.78C998.184 1251.27 981.15 1233.29 979.687 1225.73C977.586 1214.9 999.843 1202.04 1005.61 1186.05C1015.64 1158.25 1001.71 1123.27 948.589 1118.82C899.302 1114.69 893.907 1163.56 912.236 1194.91C923.841 1214.77 943.53 1222.08 972.161 1222.08" fill="#ffffff" fill-opacity="0" fill-rule="evenodd" stroke="none"/>
<path d="M948.25 1100.78C944.553 1100.56 940.852 1100.54 937.156 1100.81C930.314 1101.32 923.532 1102.82 917.219 1105.53C912.75 1107.45 908.549 1109.98 904.781 1113.06C901.562 1115.69 898.678 1118.7 896.188 1122.03C881.801 1141.27 882.019 1167.98 889.969 1189.75C891.446 1193.79 893.201 1197.74 895.25 1201.53C898.048 1206.7 901.393 1211.57 905.344 1215.94C908.18 1219.07 911.336 1221.94 914.719 1224.47C929.781 1235.75 948.222 1239.22 966.625 1239.88C967.69 1241.77 968.834 1243.63 970.031 1245.5C971.863 1248.36 973.757 1251.2 975.438 1254.16C975.56 1254.37 975.662 1254.6 975.781 1254.81C974.831 1256.24 973.858 1257.69 972.875 1259.09C969.133 1264.45 965.329 1269.73 961.781 1275.22C957.855 1281.29 954.213 1287.58 951.312 1294.22C949.905 1297.44 948.605 1300.73 947.812 1304.16C946.566 1309.55 946.342 1315.18 946.688 1320.69C946.832 1322.99 947.093 1325.29 947.469 1327.56C947.605 1328.39 947.703 1329.23 947.938 1330.03C948.288 1331.23 948.564 1332.46 949.094 1333.59C949.725 1334.94 950.503 1336.22 951.406 1337.41C952.235 1338.49 953.205 1339.46 954.25 1340.34C955.171 1341.12 956.197 1341.79 957.25 1342.38C958.167 1342.88 959.17 1343.27 960.156 1343.62C967.042 1346.12 974.513 1343.94 981.094 1341.56C986.347 1339.67 991.457 1337.41 996.562 1335.16C1002.44 1332.56 1008.26 1329.84 1014.09 1327.16C1013.48 1328.51 1012.93 1329.9 1012.31 1331.25C1008.89 1338.74 1005.43 1346.2 1002.12 1353.75C999.334 1360.13 996.6 1366.57 994.5 1373.22C991.965 1381.24 990.552 1389.47 994.656 1397.31C996.164 1400.19 998.273 1402.79 1000.88 1404.75C1002.6 1406.05 1004.5 1407.06 1006.53 1407.78C1008.41 1408.44 1010.38 1408.85 1012.38 1408.97C1024.34 1409.7 1034.52 1400.65 1042.38 1392.75C1043.76 1391.36 1045.13 1389.93 1046.47 1388.5C1048.19 1386.65 1049.8 1384.69 1051.47 1382.78C1054.88 1388.06 1058.23 1393.39 1061.47 1398.78C1069.3 1411.81 1076.79 1425.06 1084 1438.44C1086.59 1443.24 1089.14 1448.06 1091.59 1452.94C1093.1 1455.93 1094.7 1458.95 1095.88 1462.09C1099.19 1470.94 1109.06 1475.44 1117.91 1472.12C1124.54 1469.64 1128.72 1463.47 1129 1456.81C1129.09 1454.59 1128.73 1452.31 1127.91 1450.09C1126.01 1445.06 1123.54 1440.25 1121.09 1435.47C1117.66 1428.74 1114.07 1422.09 1110.44 1415.47C1100.95 1398.17 1091.17 1380.97 1080.5 1364.38C1078.02 1360.51 1075.45 1356.68 1072.75 1352.97C1070.93 1350.46 1069.05 1348 1066.91 1345.75C1065.44 1344.21 1063.84 1342.73 1062.03 1341.59C1061.45 1341.23 1060.89 1340.72 1060.22 1340.56C1056.99 1339.79 1053.73 1338.88 1050.41 1338.81C1048.95 1338.78 1047.57 1339.37 1046.19 1339.91C1047.56 1336.87 1048.99 1333.87 1050.31 1330.81C1052.97 1324.64 1055.6 1318.37 1057.38 1311.88C1059.47 1304.18 1060.02 1295.86 1055 1289.06C1054.4 1288.25 1053.74 1287.44 1053 1286.75C1052.02 1285.83 1050.97 1284.98 1049.84 1284.25C1048.87 1283.62 1047.8 1283.13 1046.72 1282.69C1045.89 1282.34 1045 1282.09 1044.12 1281.88C1036.9 1280.08 1029.29 1282.94 1022.62 1285.53C1020.96 1286.18 1019.31 1286.84 1017.66 1287.53C1015.53 1288.42 1013.42 1289.32 1011.31 1290.25C1008.71 1291.39 1006.12 1292.58 1003.53 1293.75C999.764 1295.45 996.018 1297.17 992.25 1298.88C990.655 1299.6 989.034 1300.25 987.438 1300.97C988.324 1299.42 989.108 1297.82 990.062 1296.31C994.753 1288.92 1000.1 1281.99 1004.97 1274.72C1007.92 1270.3 1011 1265.75 1012 1260.44C1013.19 1254.09 1011.58 1247.67 1008.94 1241.91C1006.7 1237.02 1003.76 1232.49 1000.88 1227.97C1000.14 1226.82 999.461 1225.66 998.75 1224.5C999.832 1223.17 1000.94 1221.89 1002.09 1220.62C1008.47 1213.65 1015.11 1206.76 1019.59 1198.34C1023.37 1191.25 1025.43 1183.19 1026.19 1175.22C1026.82 1168.51 1026.44 1161.68 1024.97 1155.09C1024.02 1150.85 1022.63 1146.73 1020.81 1142.78C1018.93 1138.71 1016.58 1134.83 1013.88 1131.25C1000.87 1114.07 980.123 1105.21 959.312 1102C955.657 1101.44 951.947 1101.01 948.25 1100.78ZM939.844 1136.66C944.089 1136.34 948.357 1136.76 952.562 1137.34C966.066 1139.21 982.111 1144.47 988.344 1157.81C989.113 1159.46 989.69 1161.2 990.094 1162.97C990.674 1165.52 990.854 1168.14 990.719 1170.75C990.551 1173.98 989.936 1177.33 988.719 1180.34C987.931 1182.29 986.674 1184.06 985.406 1185.72C983.386 1188.36 981.152 1190.83 978.906 1193.28C975.785 1196.69 972.523 1200.17 969.688 1203.91C957.031 1203.69 942.575 1202.17 933.25 1192.94C931.125 1190.83 929.315 1188.39 927.812 1185.81C926.387 1183.36 925.143 1180.8 924.125 1178.16C923.3 1176.01 922.613 1173.82 922.062 1171.59C921.59 1169.68 921.225 1167.74 920.969 1165.78C919.853 1157.27 920.697 1145.85 928.312 1140.34C929.442 1139.53 930.675 1138.86 931.969 1138.34C934.469 1137.35 937.169 1136.86 939.844 1136.66Z" fill="#000000" stroke="none"/>
</g>
<g opacity="1">
<path d="M1877.33 1446.09C1882.27 1432.49 1928.19 1350.27 1936.75 1345.84C1938.24 1345.07 1973.68 1395.04 1979.72 1378.4C1981.93 1372.33 1970.24 1348.25 1960.34 1326.55C1952.15 1308.57 1945.2 1292.21 1948.4 1289.06C1953.16 1284.37 2022.65 1323.71 2024.17 1316.25C2025.37 1310.33 2025.68 1301.52 2023.64 1295.85C2017.04 1277.44 2001.3 1260.1 1995.12 1248.77C1991.02 1241.25 2008.05 1223.27 2009.51 1215.72C2011.61 1204.88 1989.36 1192.02 1983.59 1176.03C1973.57 1148.24 1987.5 1113.26 2040.61 1108.81C2089.89 1104.68 2095.28 1153.54 2076.95 1184.9C2065.35 1204.76 2045.67 1212.06 2017.04 1212.06" fill="#ffffff" fill-opacity="0" fill-rule="evenodd" stroke="none"/>
<path d="M2052.03 1090.78C2044.05 1090.19 2036 1090.95 2028.12 1092.28C2006.93 1095.86 1986.26 1105.37 1973.72 1123.47C1971.68 1126.41 1969.91 1129.5 1968.41 1132.75C1966.23 1137.47 1964.65 1142.48 1963.72 1147.59C1962.67 1153.39 1962.44 1159.32 1963 1165.19C1963.76 1173.16 1965.82 1181.22 1969.59 1188.31C1974.24 1197.04 1981.21 1204.08 1987.78 1211.34C1988.71 1212.37 1989.62 1213.42 1990.5 1214.5C1989.78 1215.66 1989.05 1216.82 1988.31 1217.97C1985.43 1222.49 1982.52 1227.02 1980.28 1231.91C1977.64 1237.67 1976.03 1244.09 1977.22 1250.44C1978.28 1256.1 1981.69 1260.98 1984.88 1265.66C1989.58 1272.57 1994.65 1279.25 1999.12 1286.31C2000.07 1287.81 2000.83 1289.4 2001.72 1290.94C2000.14 1290.22 1998.54 1289.56 1996.97 1288.84C1993.2 1287.14 1989.42 1285.42 1985.66 1283.72C1982.71 1282.38 1979.78 1281.08 1976.81 1279.78C1974.4 1278.73 1971.97 1277.68 1969.53 1276.69C1962.18 1273.69 1953.08 1269.88 1945.06 1271.88C1944.19 1272.09 1943.33 1272.31 1942.5 1272.66C1941.42 1273.1 1940.36 1273.62 1939.38 1274.25C1938.29 1274.95 1937.27 1275.75 1936.31 1276.62C1935.6 1277.28 1934.97 1278.04 1934.38 1278.81C1928.86 1286.02 1929.8 1295 1932.19 1303.12C1934.14 1309.76 1936.86 1316.17 1939.62 1322.5C1940.7 1324.97 1941.86 1327.42 1942.97 1329.88C1941.61 1329.34 1940.22 1328.78 1938.78 1328.81C1935.46 1328.88 1932.2 1329.79 1928.97 1330.56C1928.3 1330.72 1927.77 1331.23 1927.19 1331.59C1926.72 1331.89 1926.28 1332.2 1925.84 1332.53C1924.3 1333.68 1922.92 1335.05 1921.62 1336.47C1916.7 1341.9 1912.67 1348.23 1908.72 1354.38C1898.05 1370.97 1888.27 1388.14 1878.78 1405.44C1874.96 1412.41 1871.19 1419.44 1867.59 1426.53C1865.35 1430.97 1863.06 1435.43 1861.31 1440.09C1858 1448.94 1862.5 1458.78 1871.34 1462.09C1873.56 1462.92 1875.81 1463.28 1878.03 1463.19C1884.69 1462.91 1890.86 1458.73 1893.34 1452.09C1894.51 1448.95 1896.12 1445.93 1897.62 1442.94C1900.08 1438.06 1902.63 1433.24 1905.22 1428.44C1912.43 1415.06 1919.92 1401.81 1927.75 1388.78C1930.99 1383.39 1934.34 1378.04 1937.75 1372.75C1939.86 1375.16 1941.92 1377.62 1944.12 1379.94C1945.93 1381.83 1947.76 1383.7 1949.66 1385.5C1957.86 1393.26 1968.58 1401.35 1980.62 1398.38C1982.03 1398.03 1983.32 1397.59 1984.62 1396.97C1986.57 1396.05 1988.36 1394.83 1989.94 1393.38C1991.82 1391.64 1993.38 1389.57 1994.56 1387.31C1998.74 1379.33 1997.18 1370.93 1994.56 1362.78C1992.35 1355.91 1989.5 1349.23 1986.59 1342.62C1983.36 1335.29 1979.98 1328.04 1976.66 1320.75C1976.12 1319.56 1975.63 1318.34 1975.09 1317.16C1981.28 1320 1987.46 1322.87 1993.69 1325.62C1998.74 1327.86 2003.84 1330.08 2009.06 1331.91C2015.38 1334.12 2022.5 1336 2029.06 1333.62C2030.05 1333.27 2031.02 1332.85 2031.94 1332.34C2032.99 1331.76 2034.02 1331.12 2034.94 1330.34C2035.98 1329.46 2036.98 1328.49 2037.81 1327.41C2038.72 1326.22 2039.46 1324.91 2040.09 1323.56C2040.62 1322.43 2040.9 1321.2 2041.25 1320C2041.48 1319.2 2041.58 1318.36 2041.72 1317.53C2042.23 1314.46 2042.54 1311.36 2042.62 1308.25C2042.77 1303.06 2042.41 1297.81 2041.06 1292.78C2040.01 1288.86 2038.34 1285.06 2036.59 1281.41C2033.72 1275.39 2030.34 1269.63 2026.69 1264.06C2023.17 1258.69 2019.38 1253.5 2015.72 1248.22C2014.93 1247.08 2014.17 1245.94 2013.41 1244.78C2013.75 1244.15 2014.1 1243.52 2014.47 1242.91C2015.97 1240.4 2017.58 1237.96 2019.16 1235.5C2020.35 1233.63 2021.53 1231.74 2022.59 1229.84C2040.99 1229.19 2059.45 1225.71 2074.5 1214.44C2077.88 1211.9 2081.01 1209.04 2083.84 1205.91C2087.79 1201.54 2091.14 1196.67 2093.94 1191.5C2095.99 1187.71 2097.74 1183.76 2099.22 1179.72C2107.34 1157.49 2107.4 1130.08 2092.09 1110.81C2089.82 1107.96 2087.23 1105.34 2084.41 1103.03C2080.64 1099.95 2076.44 1097.42 2071.97 1095.5C2065.66 1092.79 2058.87 1091.29 2052.03 1090.78ZM2043.66 1126.62C2045.56 1126.52 2047.47 1126.51 2049.38 1126.66C2052.05 1126.86 2054.72 1127.35 2057.22 1128.34C2058.51 1128.86 2059.75 1129.5 2060.88 1130.31C2068.72 1135.98 2069.37 1147.89 2068.09 1156.59C2067.85 1158.26 2067.53 1159.92 2067.12 1161.56C2066.57 1163.79 2065.89 1166.01 2065.06 1168.16C2064.04 1170.8 2062.8 1173.36 2061.38 1175.81C2059.87 1178.39 2058.06 1180.8 2055.94 1182.91C2046.63 1192.12 2032.2 1193.69 2019.56 1193.91C2016.5 1189.87 2012.95 1186.16 2009.59 1182.47C2007.6 1180.27 2005.61 1178.08 2003.81 1175.72C2002.54 1174.06 2001.29 1172.29 2000.5 1170.34C1999.14 1166.98 1998.49 1163.21 1998.44 1159.59C1998.4 1157 1998.7 1154.38 1999.38 1151.88C2003.28 1137.44 2018.25 1130.82 2031.66 1128.16C2033.75 1127.74 2035.85 1127.42 2037.97 1127.16C2039.86 1126.92 2041.76 1126.73 2043.66 1126.62Z" fill="#000000" stroke="none"/>
</g>
<g opacity="1">
<path d="M1024.56 1768.46C1029.97 1768.46 1035.44 1767.39 1040.79 1768.24C1043.55 1768.68 1101.44 1779.78 1103.2 1778C1105 1776.18 1110.99 1742.51 1114.16 1736C1117.63 1728.88 1127.63 1696.73 1129.82 1698.52C1131.89 1700.21 1164.05 1749.85 1173.76 1771.71C1178.02 1781.27 1208.2 1837.78 1210.48 1845.28C1211.22 1847.7 1210.29 1852.69 1212.82 1852.51C1215.47 1852.32 1214.49 1847.47 1215.29 1844.93C1217.79 1837.02 1219.91 1788.81 1222.59 1780.44C1228.2 1762.9 1239.41 1696.42 1241.91 1696.56C1244.67 1696.72 1255.88 1725.54 1260.07 1736.19C1264.85 1748.36 1278.25 1791.62 1278.01 1799.16C1277.93 1801.67 1290.38 1826.95 1292.76 1826.15C1295.56 1825.2 1295 1820.66 1295.73 1817.8C1297.04 1812.6 1304.26 1750.81 1306.85 1748.33C1315.33 1740.21 1345.41 1750.8 1351.62 1750.59C1359.51 1750.33 1397.51 1754.4 1399.94 1753.8C1415.39 1749.99 1426.36 1744.18 1442.25 1744.18" fill="#ffffff" fill-opacity="0" fill-rule="evenodd" stroke="none"/>
<path d="M1243.94 1678.03C1240.64 1678.07 1237.29 1678.57 1234.16 1679.59C1232.27 1680.21 1230.74 1681.62 1229.19 1682.84C1228.31 1683.54 1227.62 1684.45 1226.91 1685.31C1225.87 1686.57 1225.06 1688.05 1224.38 1689.53C1223.11 1692.27 1222.36 1695.27 1221.62 1698.19C1220.77 1701.61 1219.99 1705.02 1219.25 1708.47C1215.86 1724.28 1212.91 1740.19 1209.53 1756C1208.55 1760.6 1207.55 1765.19 1206.41 1769.75C1205.84 1772.01 1205.05 1774.23 1204.53 1776.5C1203.62 1780.46 1203.11 1784.5 1202.66 1788.53C1199.21 1781.91 1195.74 1775.3 1192.41 1768.62C1191.15 1766.11 1190.03 1763.53 1188.81 1761C1187.37 1757.99 1185.82 1755.04 1184.25 1752.09C1177 1738.5 1168.93 1725.31 1160.72 1712.28C1156.48 1705.55 1152.2 1698.87 1147.69 1692.31C1146.59 1690.73 1145.5 1689.12 1144.28 1687.62C1143.78 1687 1143.24 1686.3 1142.62 1685.78C1141.58 1684.9 1140.62 1683.85 1139.41 1683.22C1137.28 1682.12 1135.07 1680.94 1132.69 1680.66C1129.7 1680.3 1126.64 1680.69 1123.72 1681.38C1121.93 1681.79 1120.36 1682.9 1118.81 1683.88C1117.86 1684.48 1117.06 1685.28 1116.25 1686.06C1113.41 1688.79 1111.62 1692.56 1110.06 1696.12C1106.56 1704.14 1103.84 1712.48 1100.84 1720.69C1098.93 1725.93 1096.54 1731 1095.03 1736.38C1092.97 1743.7 1091.44 1751.14 1089.78 1758.56C1084.99 1757.82 1080.22 1757.04 1075.44 1756.22C1068.05 1754.95 1060.65 1753.61 1053.28 1752.25C1048.63 1751.39 1043.92 1750.29 1039.19 1750C1034.21 1749.7 1029.28 1750.4 1024.31 1750.47C1014.38 1750.61 1006.42 1758.79 1006.56 1768.72C1006.71 1778.65 1014.88 1786.58 1024.81 1786.44C1028.44 1786.38 1032.04 1785.96 1035.66 1785.91C1036.62 1785.89 1037.55 1786.04 1038.5 1786.09C1038.89 1786.16 1039.27 1786.24 1039.66 1786.31C1040.76 1786.52 1041.87 1786.73 1042.97 1786.94C1046.28 1787.55 1049.59 1788.15 1052.91 1788.75C1063.29 1790.64 1073.69 1792.53 1084.12 1794.16C1086.27 1794.49 1088.42 1794.79 1090.56 1795.09C1095.11 1795.74 1100.27 1796.63 1104.88 1796.03C1105.94 1795.89 1107.36 1795.62 1108.34 1795.28C1109.43 1794.9 1110.53 1794.58 1111.5 1793.97C1113.24 1792.88 1114.9 1791.64 1116.41 1790.25C1117.26 1789.46 1117.88 1788.46 1118.53 1787.5C1119.18 1786.55 1119.76 1785.24 1120.22 1784.16C1122.01 1779.9 1122.91 1775.2 1123.94 1770.72C1125.17 1765.36 1126.31 1759.98 1127.56 1754.62C1128.37 1751.18 1129.17 1747.72 1130.25 1744.34C1130.57 1743.34 1130.96 1742.6 1131.47 1741.41C1132.12 1739.88 1132.69 1738.33 1133.28 1736.78C1139.2 1746.3 1145.02 1755.89 1150.41 1765.72C1152.14 1768.88 1153.82 1772.07 1155.41 1775.31C1157.5 1779.58 1159.46 1783.91 1161.59 1788.16C1167.9 1800.69 1174.4 1813.12 1180.75 1825.62C1183.7 1831.42 1186.63 1837.24 1189.47 1843.09C1190.34 1844.89 1191.21 1846.68 1192.03 1848.5C1192.23 1848.95 1192.43 1849.42 1192.62 1849.88C1192.77 1852.34 1193.11 1854.83 1193.91 1857.16C1194.26 1858.19 1194.67 1859.2 1195.19 1860.16C1195.82 1861.31 1196.53 1862.43 1197.34 1863.47C1198.09 1864.41 1198.93 1865.28 1199.84 1866.06C1200.83 1866.9 1201.9 1867.68 1203.03 1868.31C1204.21 1868.97 1205.46 1869.5 1206.75 1869.91C1208.04 1870.31 1209.38 1870.59 1210.72 1870.75C1211.86 1870.88 1213.01 1870.86 1214.16 1870.78C1215.23 1870.71 1216.29 1870.54 1217.34 1870.28C1218.53 1869.99 1219.72 1869.62 1220.84 1869.12C1221.94 1868.64 1222.98 1868.04 1223.97 1867.38C1224.91 1866.74 1225.8 1866 1226.62 1865.22C1228.59 1863.34 1230.07 1861.07 1231.16 1858.59C1232.13 1856.38 1232.69 1853.99 1232.97 1851.59C1233.08 1850.61 1233.09 1850.17 1233.16 1849.22C1233.17 1849.01 1233.2 1848.83 1233.22 1848.62C1233.22 1848.59 1233.23 1848.47 1233.22 1848.5C1233.78 1846.22 1234.25 1843.91 1234.56 1841.59C1235.24 1836.6 1235.7 1831.58 1236.16 1826.56C1237.06 1816.59 1237.8 1806.58 1238.88 1796.62C1239.11 1794.48 1239.2 1792.29 1239.53 1790.16C1239.77 1788.62 1240.15 1787.09 1240.44 1785.56C1240.48 1785.31 1240.51 1785.06 1240.56 1784.81C1240.59 1784.67 1240.63 1784.64 1240.66 1784.56C1240.73 1784.31 1240.8 1784.07 1240.88 1783.81C1241.19 1782.74 1241.49 1781.67 1241.78 1780.59C1242.51 1777.85 1243.16 1775.08 1243.81 1772.31C1245.04 1767.06 1246.14 1761.78 1247.25 1756.5C1250.84 1767.49 1254.21 1778.58 1257.06 1789.78C1257.64 1792.04 1258.21 1794.31 1258.69 1796.59C1258.84 1797.33 1258.97 1798.07 1259.09 1798.81C1259.15 1799.15 1259.15 1799.23 1259.19 1799.53C1259.19 1799.55 1259.19 1799.61 1259.19 1799.59C1259.23 1800.28 1259.23 1800.97 1259.31 1801.66C1259.44 1802.74 1259.66 1803.76 1259.94 1804.81C1260.68 1807.62 1261.88 1810.3 1263.06 1812.94C1264.53 1816.22 1266.09 1819.47 1267.75 1822.66C1268.67 1824.43 1269.64 1826.17 1270.62 1827.91C1273.48 1832.94 1276.93 1838.88 1282.03 1841.94C1283.08 1842.56 1284.13 1843.2 1285.28 1843.59C1287.12 1844.22 1289.02 1844.88 1290.97 1844.97C1293.45 1845.08 1295.94 1844.65 1298.38 1844.19C1299.42 1843.99 1300.36 1843.46 1301.31 1843C1302.18 1842.58 1303.04 1842.09 1303.84 1841.56C1307.67 1839.04 1310.5 1835.32 1312.19 1831.09C1313.36 1828.14 1313.87 1824.99 1314.19 1821.84C1314.3 1820.77 1314.71 1819.12 1314.91 1817.88C1315.4 1814.75 1315.82 1811.63 1316.25 1808.5C1317.89 1796.63 1319.47 1784.73 1321.25 1772.88C1321.67 1770.09 1322.11 1767.31 1322.56 1764.53C1324 1764.71 1325.43 1764.91 1326.84 1765.16C1331.3 1765.93 1335.7 1766.95 1340.12 1767.91C1343.12 1768.55 1346.15 1769.21 1349.22 1769.44C1350.49 1769.53 1351.76 1769.5 1353.03 1769.53C1354.9 1769.57 1356.76 1769.69 1358.62 1769.81C1366.27 1770.32 1373.93 1771.01 1381.56 1771.66C1385.74 1772.01 1389.91 1772.36 1394.09 1772.62C1396.62 1772.78 1399.27 1773.04 1401.78 1772.69C1406.16 1772.08 1410.47 1770.67 1414.69 1769.38C1421.22 1767.37 1427.69 1765.05 1434.44 1763.84C1437.11 1763.36 1439.82 1763.22 1442.53 1763.19C1453.02 1763.04 1461.4 1754.4 1461.25 1743.91C1461.1 1733.42 1452.46 1725.04 1441.97 1725.19C1437.2 1725.26 1432.48 1725.61 1427.78 1726.44C1421.82 1727.49 1416.02 1729.15 1410.25 1730.97C1406.93 1732.01 1403.62 1733.09 1400.28 1734.06C1399.36 1734.33 1398.45 1734.6 1397.53 1734.84C1397.41 1734.84 1397.29 1734.82 1397.16 1734.81C1396.37 1734.77 1395.57 1734.71 1394.78 1734.66C1392.26 1734.48 1389.74 1734.27 1387.22 1734.06C1379.31 1733.41 1371.41 1732.72 1363.5 1732.16C1360.6 1731.95 1357.69 1731.75 1354.78 1731.66C1353.94 1731.63 1353.08 1731.64 1352.22 1731.66C1352.13 1731.64 1352.05 1731.64 1351.97 1731.62C1351.83 1731.6 1351.7 1731.59 1351.56 1731.56C1351.17 1731.49 1350.83 1731.42 1350.44 1731.34C1349.05 1731.07 1347.67 1730.77 1346.28 1730.47C1342.83 1729.71 1339.38 1728.96 1335.91 1728.31C1322.63 1725.83 1307.08 1724.13 1295.69 1732.97C1294.1 1734.2 1292.72 1735.71 1291.47 1737.28C1290.03 1739.09 1289.07 1741.32 1288.34 1743.5C1287.17 1747.01 1286.49 1750.71 1285.88 1754.38C1283.59 1747.01 1281.31 1739.64 1278.66 1732.41C1276.27 1725.89 1273.61 1719.45 1270.97 1713.03C1268.97 1708.18 1266.92 1703.33 1264.72 1698.56C1263.23 1695.34 1261.71 1692.09 1259.84 1689.06C1258.58 1687.01 1257.13 1685 1255.34 1683.38C1254.66 1682.75 1253.96 1682.1 1253.19 1681.59C1251.96 1680.78 1250.72 1679.97 1249.34 1679.44C1247.6 1678.77 1245.8 1678.01 1243.94 1678.03Z" fill="#000000" stroke="none"/>
</g>
<g opacity="1">
<path d="M1976.63 1784.24C1971.22 1784.24 1965.75 1783.17 1960.4 1784.02C1957.64 1784.46 1899.75 1795.56 1897.99 1793.77C1896.19 1791.95 1890.2 1758.28 1887.03 1751.78C1883.56 1744.65 1873.56 1712.51 1871.37 1714.29C1869.3 1715.98 1837.14 1765.63 1827.43 1787.48C1823.17 1797.05 1793 1853.56 1790.71 1861.06C1789.97 1863.48 1790.9 1868.47 1788.37 1868.29C1785.72 1868.1 1786.71 1863.24 1785.9 1860.71C1783.4 1852.8 1781.28 1804.59 1778.6 1796.22C1772.99 1778.68 1761.78 1712.2 1759.28 1712.34C1756.53 1712.5 1745.31 1741.31 1741.12 1751.97C1736.34 1764.14 1722.94 1807.4 1723.18 1814.94C1723.26 1817.45 1710.81 1842.73 1708.44 1841.93C1705.64 1840.98 1706.19 1836.44 1705.46 1833.57C1704.15 1828.38 1696.93 1766.58 1694.34 1764.11C1685.86 1755.99 1655.78 1766.57 1649.57 1766.37C1641.68 1766.1 1603.68 1770.18 1601.25 1769.58C1585.8 1765.77 1574.83 1759.96 1558.94 1759.96" fill="#ffffff" fill-opacity="0" fill-rule="evenodd" stroke="none"/>
<path d="M1757.28 1693.81C1755.42 1693.79 1753.59 1694.52 1751.84 1695.19C1750.47 1695.72 1749.23 1696.57 1748 1697.38C1747.22 1697.89 1746.53 1698.53 1745.84 1699.16C1744.05 1700.79 1742.61 1702.79 1741.34 1704.84C1739.28 1708.2 1737.6 1711.8 1735.97 1715.38C1733.78 1720.18 1731.75 1725.06 1729.75 1729.94C1727.27 1735.98 1724.78 1742.02 1722.53 1748.16C1719.88 1755.39 1717.59 1762.76 1715.31 1770.12C1714.66 1766.2 1713.93 1762.18 1712.56 1758.47C1711.87 1756.58 1710.98 1754.65 1709.72 1753.06C1707.88 1750.75 1705.89 1748.88 1703.44 1747.28C1691.98 1739.81 1676.7 1741.84 1664 1744.31C1660.64 1744.97 1657.28 1745.71 1653.94 1746.44C1652.67 1746.71 1651.43 1747.01 1650.16 1747.25C1649.86 1747.31 1649.52 1747.36 1649.22 1747.41C1649.13 1747.42 1649.05 1747.43 1648.97 1747.44C1647.47 1747.37 1645.91 1747.46 1644.44 1747.53C1641.77 1747.66 1639.1 1747.84 1636.44 1748.03C1628.53 1748.61 1620.65 1749.3 1612.75 1749.94C1610.35 1750.13 1607.97 1750.34 1605.56 1750.5C1604.93 1750.54 1604.29 1750.59 1603.66 1750.62C1602.74 1750.38 1601.83 1750.11 1600.91 1749.84C1597.57 1748.88 1594.29 1747.79 1590.97 1746.75C1585.2 1744.94 1579.37 1743.27 1573.41 1742.22C1568.71 1741.39 1563.98 1741.04 1559.22 1740.97C1548.73 1740.82 1540.09 1749.2 1539.94 1759.69C1539.79 1770.18 1548.2 1778.79 1558.69 1778.94C1561.4 1778.97 1564.1 1779.15 1566.78 1779.62C1574.18 1780.95 1581.23 1783.57 1588.41 1785.72C1592.02 1786.8 1595.7 1787.95 1599.44 1788.47C1602.26 1788.86 1605.23 1788.53 1608.06 1788.34C1612.37 1788.06 1616.67 1787.71 1620.97 1787.34C1628.5 1786.71 1636.02 1786 1643.56 1785.53C1645.09 1785.44 1646.62 1785.35 1648.16 1785.31C1649.43 1785.28 1650.7 1785.31 1651.97 1785.22C1655.37 1784.96 1658.71 1784.2 1662.03 1783.47C1666.44 1782.5 1670.86 1781.5 1675.31 1780.78C1676.42 1780.6 1677.54 1780.48 1678.66 1780.34C1679.21 1783.75 1679.74 1787.15 1680.25 1790.56C1681.93 1801.78 1683.38 1813.05 1684.94 1824.28C1685.37 1827.41 1685.79 1830.53 1686.28 1833.66C1686.48 1834.9 1686.92 1836.55 1687.03 1837.62C1687.35 1840.77 1687.83 1843.92 1689 1846.88C1691.04 1852.01 1694.84 1856.38 1699.88 1858.78C1700.83 1859.24 1701.77 1859.74 1702.81 1859.94C1705.25 1860.4 1707.74 1860.86 1710.22 1860.75C1712.17 1860.67 1714.06 1860.01 1715.91 1859.38C1717.06 1858.98 1718.11 1858.31 1719.16 1857.69C1724.26 1854.63 1727.74 1848.72 1730.59 1843.69C1731.58 1841.95 1732.51 1840.21 1733.44 1838.44C1735.23 1834.99 1736.94 1831.46 1738.5 1827.91C1739.55 1825.52 1740.58 1823.12 1741.25 1820.59C1741.53 1819.54 1741.75 1818.52 1741.88 1817.44C1741.95 1816.76 1741.96 1816.06 1742 1815.38C1742 1815.35 1742 1815.33 1742 1815.31C1742.01 1815.22 1742.02 1815.13 1742.03 1815.03C1742.05 1814.88 1742.07 1814.71 1742.09 1814.56C1742.13 1814.35 1742.18 1814.18 1742.22 1813.97C1742.37 1813.12 1742.53 1812.25 1742.72 1811.41C1743.25 1808.99 1743.85 1806.61 1744.47 1804.22C1747.27 1793.46 1750.52 1782.79 1753.97 1772.22C1755.22 1778.17 1756.43 1784.12 1757.84 1790.03C1758.48 1792.7 1759.14 1795.36 1759.88 1798C1760.09 1798.78 1760.3 1799.57 1760.53 1800.34C1760.58 1800.5 1760.64 1800.63 1760.69 1800.81C1760.73 1800.99 1760.75 1801.17 1760.78 1801.34C1760.89 1801.93 1760.98 1802.51 1761.09 1803.09C1761.27 1804.04 1761.51 1804.98 1761.66 1805.94C1762.07 1808.55 1762.19 1811.24 1762.47 1813.88C1763.49 1823.34 1764.17 1832.86 1765.03 1842.34C1765.53 1847.77 1766.03 1853.2 1766.81 1858.59C1767.09 1860.55 1767.49 1862.49 1767.97 1864.41C1767.98 1864.61 1768.02 1864.8 1768.03 1865C1768.06 1865.36 1768.06 1865.73 1768.09 1866.09C1768.16 1866.92 1768.25 1867.71 1768.38 1868.53C1768.68 1870.53 1769.22 1872.52 1770.03 1874.38C1771.12 1876.85 1772.63 1879.12 1774.59 1881C1775.41 1881.79 1776.28 1882.52 1777.22 1883.16C1778.21 1883.82 1779.25 1884.43 1780.34 1884.91C1781.46 1885.4 1782.65 1885.77 1783.84 1886.06C1784.89 1886.32 1785.95 1886.49 1787.03 1886.56C1788.17 1886.64 1789.33 1886.63 1790.47 1886.5C1791.81 1886.34 1793.15 1886.1 1794.44 1885.69C1795.73 1885.28 1796.98 1884.75 1798.16 1884.09C1799.29 1883.46 1800.36 1882.68 1801.34 1881.84C1802.26 1881.06 1803.1 1880.2 1803.84 1879.25C1804.66 1878.22 1805.37 1877.09 1806 1875.94C1806.52 1874.98 1806.93 1873.94 1807.28 1872.91C1808.08 1870.58 1808.39 1868.12 1808.53 1865.66C1808.55 1865.62 1808.58 1865.6 1808.59 1865.56C1808.93 1864.8 1809.28 1864.04 1809.62 1863.28C1810.54 1861.31 1811.48 1859.36 1812.44 1857.41C1815.22 1851.72 1818.06 1846.07 1820.94 1840.44C1827.27 1828.03 1833.69 1815.67 1839.94 1803.22C1841.95 1799.21 1843.81 1795.12 1845.78 1791.09C1847.52 1787.55 1849.37 1784.05 1851.28 1780.59C1856.53 1771.09 1862.14 1761.79 1867.88 1752.56C1867.91 1752.65 1867.94 1752.73 1867.97 1752.81C1868.53 1754.28 1869.11 1755.74 1869.72 1757.19C1870.22 1758.38 1870.62 1759.09 1870.94 1760.09C1872.01 1763.47 1872.82 1766.96 1873.62 1770.41C1874.96 1776.13 1876.18 1781.87 1877.5 1787.59C1878.23 1790.76 1878.98 1793.93 1879.94 1797.03C1880.6 1799.18 1881.38 1801.38 1882.66 1803.25C1883.31 1804.21 1883.93 1805.21 1884.78 1806C1886.29 1807.39 1887.95 1808.66 1889.69 1809.75C1890.66 1810.36 1891.76 1810.68 1892.84 1811.06C1896.47 1812.33 1900.56 1812.03 1904.31 1811.66C1909.22 1811.16 1914.07 1810.41 1918.94 1809.62C1928.73 1808.04 1938.52 1806.31 1948.28 1804.53C1951.59 1803.93 1954.91 1803.33 1958.22 1802.72C1959.32 1802.51 1960.43 1802.3 1961.53 1802.09C1961.92 1802.02 1962.3 1801.95 1962.69 1801.88C1963.64 1801.82 1964.57 1801.67 1965.53 1801.69C1969.15 1801.74 1972.75 1802.16 1976.38 1802.22C1986.31 1802.36 1994.48 1794.43 1994.62 1784.5C1994.77 1774.57 1986.84 1766.39 1976.91 1766.25C1971.94 1766.18 1966.98 1765.48 1962 1765.78C1956.8 1766.09 1951.58 1767.34 1946.47 1768.28C1938.96 1769.66 1931.46 1771.03 1923.94 1772.31C1919.78 1773.02 1915.6 1773.66 1911.44 1774.31C1911.42 1774.24 1911.39 1774.17 1911.38 1774.09C1909.73 1766.76 1908.19 1759.4 1906.16 1752.16C1904.64 1746.78 1902.26 1741.71 1900.34 1736.47C1897.35 1728.26 1894.63 1719.92 1891.12 1711.91C1889.57 1708.35 1887.78 1704.58 1884.94 1701.84C1884.13 1701.06 1883.33 1700.26 1882.38 1699.66C1880.83 1698.68 1879.25 1697.57 1877.47 1697.16C1874.54 1696.47 1871.48 1696.09 1868.5 1696.44C1866.12 1696.72 1863.91 1697.9 1861.78 1699C1860.57 1699.63 1859.61 1700.68 1858.56 1701.56C1857.81 1702.2 1857.2 1703.04 1856.59 1703.81C1855.39 1705.35 1854.26 1706.98 1853.16 1708.59C1848.57 1715.29 1844.2 1722.13 1839.88 1729C1831.87 1741.72 1824.02 1754.61 1816.94 1767.88C1815.37 1770.82 1813.85 1773.77 1812.41 1776.78C1811.19 1779.31 1810.04 1781.89 1808.78 1784.41C1805.45 1791.09 1801.98 1797.69 1798.53 1804.31C1798.08 1800.28 1797.57 1796.24 1796.66 1792.28C1796.13 1790.01 1795.38 1787.79 1794.81 1785.53C1793.66 1780.97 1792.64 1776.38 1791.66 1771.78C1788.27 1755.97 1785.33 1740.06 1781.94 1724.25C1781.09 1720.32 1780.24 1716.39 1779.22 1712.5C1778.48 1709.7 1777.68 1706.82 1776.31 1704.25C1775.76 1703.21 1775.02 1701.99 1774.28 1701.09C1773.57 1700.23 1772.88 1699.32 1772 1698.62C1770.45 1697.4 1768.91 1695.96 1767.03 1695.34C1763.9 1694.32 1760.58 1693.85 1757.28 1693.81Z" fill="#000000" stroke="none"/>
</g>
<g opacity="1">
<path d="M1592.35 1922.99C1569.62 1920.38 1563.81 1928.71 1540.45 1915.36" fill="#ffffff" fill-opacity="0" fill-rule="evenodd" stroke="none"/>
<path d="M1538.16 1887.44C1529.19 1888.18 1520.73 1893.22 1516 1901.66C1508.42 1915.15 1513.22 1932.24 1526.72 1939.81C1531.85 1942.62 1537.11 1945.18 1542.66 1947.06C1548.61 1949.09 1554.9 1950.29 1561.19 1950.5C1564.73 1950.62 1568.26 1950.43 1571.78 1950.09C1575.86 1949.7 1579.9 1949.05 1584 1949.03C1585.84 1949.02 1587.7 1949.19 1589.53 1949.38C1604.1 1950.94 1617.16 1940.38 1618.72 1925.81C1620.28 1911.24 1609.76 1898.19 1595.19 1896.62C1589.02 1895.94 1582.83 1895.69 1576.62 1895.88C1574 1895.95 1571.35 1896.04 1568.72 1896.03C1567.11 1896.03 1565.48 1895.96 1563.91 1895.56C1563.19 1895.38 1562.05 1894.85 1561.25 1894.53C1558.78 1893.54 1556.46 1892.27 1554.16 1890.94C1549.1 1888.1 1543.53 1886.99 1538.16 1887.44Z" fill="#000000" stroke="none"/>
</g>
<g opacity="1">
<path d="M968.991 2019.47C1007.51 2037.55 1039.95 2038.94 1048.36 2042.44C1064.98 2049.36 1048.17 2091.83 1050.95 2109.96C1063.63 2192.68 1135.39 2259.59 1263.73 2263.41C1441.06 2268.69 1482.95 2157.76 1556.8 2047.86C1565.04 2035.6 1607.35 1989.23 1627.15 1959.42" fill="#ffffff" fill-opacity="0" fill-rule="evenodd" stroke="none"/>
<path d="M1627.09 1931.41C1618.1 1931.43 1609.3 1935.75 1603.91 1943.78C1597.84 1952.82 1591.19 1961.44 1584.44 1969.97C1575.47 1981.28 1566.16 1992.32 1556.88 2003.38C1552.24 2008.89 1547.59 2014.42 1543.03 2020C1539.77 2023.99 1536.47 2028 1533.59 2032.28C1514.66 2060.46 1497.36 2089.72 1478.44 2117.91C1462.72 2141.32 1445.77 2164.26 1425 2183.47C1410.67 2196.72 1394.53 2207.97 1376.84 2216.28C1344.65 2231.41 1308.77 2236.47 1273.47 2236.34C1254.84 2236.28 1236.19 2234.87 1217.84 2231.56C1185.05 2225.65 1152.58 2213.51 1126.62 2192.16C1106.84 2175.88 1091.61 2154.54 1083.25 2130.28C1081.36 2124.8 1079.81 2119.21 1078.62 2113.53C1078.25 2111.73 1077.9 2109.93 1077.59 2108.12C1077.45 2107.3 1077.27 2106.44 1077.25 2105.59C1077.17 2102.54 1077.61 2099.45 1078.03 2096.44C1078.57 2092.56 1079.21 2088.71 1079.81 2084.84C1082.58 2067.25 1085.45 2046.94 1074.84 2031.28C1073.08 2028.68 1071.02 2026.26 1068.66 2024.19C1065.67 2021.56 1062.26 2019.48 1058.59 2017.94C1054.33 2016.15 1049.74 2015.16 1045.22 2014.28C1040.74 2013.41 1036.25 2012.63 1031.78 2011.75C1021.25 2009.67 1010.83 2007.07 1000.66 2003.62C993.664 2001.25 986.826 1998.47 980.125 1995.38C966.826 1989.23 951.056 1995.04 944.906 2008.34C943.369 2011.67 942.582 2015.15 942.469 2018.59C942.128 2028.93 947.87 2038.95 957.844 2043.56C974.085 2051.08 990.999 2056.86 1008.41 2061C1014.81 2062.52 1021.28 2063.82 1027.75 2065.03C1028.12 2065.1 1028.5 2065.18 1028.88 2065.25C1028.86 2065.43 1028.86 2065.61 1028.84 2065.78C1028.33 2070.55 1027.54 2075.27 1026.78 2080C1025.36 2088.9 1023.83 2097.92 1024.06 2106.97C1024.22 2112.82 1025.35 2118.62 1026.53 2124.34C1031.52 2148.49 1041.16 2171.61 1054.94 2192.06C1066.59 2209.36 1081.1 2224.65 1097.56 2237.44C1136.04 2267.32 1183.67 2282.84 1231.66 2288.34C1247.31 2290.14 1263.09 2290.92 1278.84 2290.84C1320.4 2290.63 1362.21 2283.82 1400.12 2266.25C1416.8 2258.52 1432.55 2248.82 1447 2237.47C1480.78 2210.95 1506.76 2176.33 1530.22 2140.72C1547.08 2115.12 1562.95 2088.91 1580 2063.44C1581.13 2061.75 1582.45 2060.15 1583.72 2058.56C1585.56 2056.26 1587.46 2053.99 1589.34 2051.72C1594.16 2045.93 1599.03 2040.17 1603.88 2034.41C1612.41 2024.25 1620.9 2014.07 1629.16 2003.69C1636.56 1994.38 1643.77 1984.9 1650.41 1975.03C1653.64 1970.21 1655.2 1964.77 1655.19 1959.38C1655.16 1950.38 1650.81 1941.55 1642.78 1936.16C1637.96 1932.92 1632.49 1931.39 1627.09 1931.41Z" fill="#000000" stroke="none"/>
</g>
<g opacity="1">
<path d="M1403.19 1914.83C1427.45 1916.53 1436.38 1920.65 1454.1 1910.52" fill="#ffffff" fill-opacity="0" fill-rule="evenodd" stroke="none"/>
<path d="M1456.41 1882.59C1451.03 1882.15 1445.47 1883.25 1440.41 1886.09C1438.14 1887.41 1435.74 1888.73 1433.22 1889.34C1429.82 1890.17 1426.16 1889.88 1422.69 1889.72C1416.82 1889.45 1410.99 1888.77 1405.12 1888.38C1390.51 1887.31 1377.78 1898.29 1376.72 1912.91C1375.66 1927.52 1386.67 1940.22 1401.28 1941.28C1406.26 1941.67 1411.21 1942.24 1416.16 1942.94C1423.07 1943.91 1429.96 1944.84 1436.97 1944.47C1441.06 1944.25 1445.11 1943.62 1449.09 1942.66C1455.67 1941.07 1461.91 1938.2 1467.81 1934.97C1481.31 1927.4 1486.1 1910.31 1478.53 1896.81C1473.8 1888.38 1465.37 1883.34 1456.41 1882.59Z" fill="#000000" stroke="none"/>
</g>
<g opacity="1">
<path d="M2025.56 2014.63C1987.03 2032.71 1954.6 2034.1 1946.18 2037.6C1929.57 2044.52 1946.38 2086.99 1943.6 2105.12C1930.92 2187.84 1859.16 2254.75 1730.82 2258.57C1553.49 2263.85 1519.76 2146.94 1437.47 2037.14C1432.38 2030.34 1391.91 1982.14 1368.28 1950.12" fill="#ffffff" fill-opacity="0" fill-rule="evenodd" stroke="none"/>
<path d="M1367.03 1922.12C1361.64 1922.36 1356.26 1924.14 1351.59 1927.59C1339.16 1936.81 1336.57 1954.38 1345.78 1966.81C1360.73 1986.96 1376.47 2006.46 1392.31 2025.91C1397.32 2032.05 1402.36 2038.18 1407.38 2044.31C1409.96 2047.48 1412.65 2050.6 1415.09 2053.88C1421.62 2062.62 1427.94 2071.48 1434.12 2080.47C1448.22 2100.96 1461.54 2121.96 1475.47 2142.56C1496.83 2174.16 1520.02 2205.07 1549.41 2229.72C1555.77 2235.06 1562.4 2240.09 1569.28 2244.75C1580 2252 1591.36 2258.32 1603.16 2263.62C1642 2281.1 1684.92 2286.8 1727.22 2285.88C1750.94 2285.36 1774.65 2282.85 1797.81 2277.66C1833.51 2269.65 1867.96 2255.12 1896.97 2232.59C1913.43 2219.81 1927.97 2204.51 1939.62 2187.22C1953.4 2166.76 1963.04 2143.68 1968.03 2119.53C1969.21 2113.81 1970.35 2107.98 1970.5 2102.12C1970.75 2092.49 1969.01 2082.91 1967.5 2073.44C1966.81 2069.12 1966.16 2064.79 1965.72 2060.44C1966.58 2060.29 1967.43 2060.1 1968.28 2059.94C1974.26 2058.81 1980.21 2057.6 1986.12 2056.19C2003.53 2052.04 2020.45 2046.24 2036.69 2038.72C2049.99 2032.57 2055.77 2016.8 2049.62 2003.5C2043.48 1990.2 2027.74 1984.41 2014.44 1990.56C2007.74 1993.66 2000.9 1996.44 1993.91 1998.81C1983.73 2002.26 1973.29 2004.83 1962.75 2006.91C1957.87 2007.87 1952.97 2008.71 1948.09 2009.69C1943.98 2010.51 1939.85 2011.46 1935.97 2013.09C1932.3 2014.63 1928.89 2016.75 1925.91 2019.38C1923.54 2021.45 1921.45 2023.83 1919.69 2026.44C1908.74 2042.61 1912.13 2063.68 1915 2081.78C1915.66 2085.95 1916.38 2090.12 1916.88 2094.31C1917.13 2096.44 1917.37 2098.6 1917.31 2100.75C1917.28 2101.95 1916.96 2103.16 1916.75 2104.34C1916.49 2105.79 1916.21 2107.25 1915.91 2108.69C1914.72 2114.36 1913.2 2119.96 1911.31 2125.44C1902.95 2149.7 1887.7 2171.03 1867.91 2187.31C1842.78 2207.98 1811.57 2220 1779.88 2226.12C1762.19 2229.54 1744.16 2231.18 1726.16 2231.47C1700.11 2231.89 1673.78 2229.56 1648.75 2222.03C1634.66 2217.79 1621.07 2211.87 1608.47 2204.25C1579.16 2186.52 1556.45 2160.36 1536.59 2132.84C1518.74 2108.1 1502.58 2082.18 1485.59 2056.84C1480.18 2048.78 1474.63 2040.77 1468.97 2032.88C1465.77 2028.42 1462.59 2023.94 1459.25 2019.59C1456.28 2015.74 1453.17 2012.02 1450.09 2008.25C1445.57 2002.71 1441.04 1997.14 1436.53 1991.59C1420.97 1972.45 1405.45 1953.27 1390.78 1933.44C1385.02 1925.67 1376.02 1921.73 1367.03 1922.12Z" fill="#000000" stroke="none"/>
</g>
<g opacity="1">
<path d="M1044.13 1656C1145.75 1398.61 1530.85 1555.14 1439.18 1843.86C1363.78 2081.37 916.201 1980.02 1044.13 1656Z" fill="#ffffff" fill-opacity="0" fill-rule="evenodd" stroke="none"/>
<path d="M1230.44 1502C1210.54 1501.51 1190.6 1503.58 1171.28 1508.44C1146.05 1514.78 1122.11 1525.95 1101.06 1541.25C1086.14 1552.1 1072.72 1564.97 1061.09 1579.28C1050.08 1592.85 1040.59 1607.7 1032.75 1623.31C1030.03 1628.73 1027.46 1634.23 1025.09 1639.81C1023.34 1641.88 1021.79 1644.18 1020.75 1646.84C1020.26 1648.11 1020.55 1647.68 1020.25 1648.12C1019.98 1648.52 1019.89 1649.02 1019.72 1649.47C1019.55 1649.92 1019.39 1650.37 1019.22 1650.81C1018.88 1651.7 1018.52 1652.61 1018.19 1653.5C1017.03 1656.59 1015.92 1659.67 1014.84 1662.78C1010.29 1675.91 1006.42 1689.28 1003.41 1702.84C998.842 1723.38 996.275 1744.45 996.25 1765.47C996.225 1786.49 998.731 1807.47 1004.28 1827.88C1007.18 1838.53 1010.9 1849 1015.38 1859.09C1021.33 1872.52 1028.69 1885.32 1037.25 1897.25C1088.9 1969.2 1181.2 2005.01 1268.16 1998.25C1316.63 1994.48 1364.44 1977.18 1401.47 1945.16C1422.59 1926.89 1439.68 1904.23 1451.62 1879C1459.09 1863.23 1464.38 1846.55 1468.53 1829.62C1474.12 1806.84 1477.27 1783.42 1477.44 1759.97C1477.49 1752.15 1477.22 1744.34 1476.59 1736.53C1473.57 1698.64 1462.14 1661.55 1442.88 1628.75C1402.54 1560.06 1329.61 1512.09 1250.31 1503.34C1243.72 1502.62 1237.07 1502.16 1230.44 1502ZM1220.75 1549.62C1285.09 1548.27 1348.73 1581.37 1387.44 1632.31C1407.61 1658.86 1420.98 1690.2 1426.22 1723.12C1431.46 1756.07 1428.61 1789.86 1420.09 1822C1417.38 1832.23 1414.25 1842.37 1410.06 1852.09C1403.18 1868.07 1393.73 1882.92 1381.94 1895.72C1355.27 1924.65 1318.21 1941.39 1279.66 1947.09C1240.56 1952.88 1199.87 1947.75 1163.22 1933.09C1140.84 1924.15 1119.85 1911.46 1102.03 1895.19C1091.58 1885.65 1082.25 1874.89 1074.44 1863.09C1068.18 1853.64 1062.88 1843.53 1058.69 1833C1045.34 1799.52 1043.74 1762.69 1049.69 1727.44C1052.18 1712.65 1055.96 1698.08 1060.69 1683.84C1062.11 1679.57 1063.63 1675.31 1065.22 1671.09C1065.66 1669.92 1066.11 1668.77 1066.56 1667.59C1066.72 1667.2 1066.54 1667.6 1067.5 1665.16C1068.42 1662.81 1068.84 1660.39 1069.03 1658C1069.61 1656.66 1070.15 1655.33 1070.75 1654C1075.45 1643.6 1080.93 1633.56 1087.22 1624.03C1096.83 1609.47 1108.47 1596.2 1122 1585.16C1146.52 1565.15 1176.44 1553.32 1207.91 1550.38C1212.19 1549.97 1216.46 1549.72 1220.75 1549.62Z" fill="#000000" stroke="none"/>
</g>
<g opacity="1">
<path d="M1588.54 1664.19C1690.16 1406.8 2075.26 1563.34 1983.6 1852.05C1908.19 2089.57 1460.61 1988.21 1588.54 1664.19Z" fill="#ffffff" fill-opacity="0" fill-rule="evenodd" stroke="none"/>
<path d="M1774.88 1510.19C1754.98 1509.7 1735.03 1511.8 1715.72 1516.66C1690.49 1523 1666.52 1534.14 1645.47 1549.44C1630.55 1560.28 1617.13 1573.19 1605.5 1587.5C1594.48 1601.07 1585 1615.88 1577.16 1631.5C1574.44 1636.92 1571.86 1642.41 1569.5 1648C1567.74 1650.07 1566.2 1652.39 1565.16 1655.06C1564.66 1656.33 1564.96 1655.86 1564.66 1656.31C1564.39 1656.71 1564.33 1657.21 1564.16 1657.66C1563.98 1658.1 1563.8 1658.55 1563.62 1659C1563.28 1659.89 1562.96 1660.79 1562.62 1661.69C1561.47 1664.77 1560.33 1667.85 1559.25 1670.97C1554.69 1684.1 1550.83 1697.49 1547.81 1711.06C1543.25 1731.59 1540.71 1752.63 1540.69 1773.66C1540.66 1794.68 1543.17 1815.66 1548.72 1836.06C1551.62 1846.72 1555.3 1857.18 1559.78 1867.28C1565.74 1880.7 1573.09 1893.51 1581.66 1905.44C1633.31 1977.39 1725.6 2013.2 1812.56 2006.44C1861.04 2002.67 1908.85 1985.37 1945.88 1953.34C1966.99 1935.08 1984.09 1912.41 1996.03 1887.19C2003.5 1871.42 2008.79 1854.73 2012.94 1837.81C2020.39 1807.43 2023.52 1775.95 2021.03 1744.72C2018.01 1706.82 2006.57 1669.74 1987.31 1636.94C1946.98 1568.25 1874.02 1520.28 1794.72 1511.53C1788.13 1510.8 1781.51 1510.35 1774.88 1510.19ZM1765.19 1557.84C1829.53 1556.49 1893.17 1589.56 1931.88 1640.5C1952.05 1667.05 1965.38 1698.39 1970.62 1731.31C1975.87 1764.26 1973.05 1798.04 1964.53 1830.19C1961.82 1840.42 1958.66 1850.55 1954.47 1860.28C1947.59 1876.26 1938.14 1891.11 1926.34 1903.91C1899.68 1932.84 1862.62 1949.58 1824.06 1955.28C1784.97 1961.06 1744.31 1955.94 1707.66 1941.28C1685.28 1932.33 1664.29 1919.68 1646.47 1903.41C1636.02 1893.87 1626.66 1883.08 1618.84 1871.28C1612.58 1861.83 1607.29 1851.72 1603.09 1841.19C1589.75 1807.7 1588.14 1770.88 1594.09 1735.62C1596.59 1720.83 1600.37 1706.29 1605.09 1692.06C1606.51 1687.78 1608.04 1683.53 1609.62 1679.31C1610.07 1678.14 1610.52 1676.95 1610.97 1675.78C1611.12 1675.39 1610.95 1675.79 1611.91 1673.34C1612.82 1671 1613.24 1668.6 1613.44 1666.22C1614.01 1664.88 1614.59 1663.52 1615.19 1662.19C1619.88 1651.78 1625.33 1641.74 1631.62 1632.22C1641.24 1617.66 1652.88 1604.38 1666.41 1593.34C1690.93 1573.33 1720.85 1561.51 1752.31 1558.56C1756.6 1558.16 1760.9 1557.93 1765.19 1557.84Z" fill="#000000" stroke="none"/>
</g>
</g>
</svg>
