<?xml version="1.0" encoding="UTF-8" standalone="no"?>
<!DOCTYPE svg PUBLIC "-//W3C//DTD SVG 1.1//EN" "http://www.w3.org/Graphics/SVG/1.1/DTD/svg11.dtd"
[
<!ATTLIST g
  xmlns:vectornator CDATA #FIXED "http://vectornator.io"
  vectornator:layerName CDATA #IMPLIED >
<!ATTLIST g
  xmlns:vectornator CDATA #FIXED "http://vectornator.io"
  vectornator:mask CDATA #IMPLIED >
<!ATTLIST text
  xmlns:vectornator CDATA #FIXED "http://vectornator.io"
  vectornator:width CDATA #IMPLIED >

<!ATTLIST path
  xmlns:vectornator CDATA #FIXED "http://vectornator.io"
  vectornator:blendMode CDATA #IMPLIED >
<!ATTLIST path
  xmlns:vectornator CDATA #FIXED "http://vectornator.io"
  vectornator:shadowColor CDATA #IMPLIED >
<!ATTLIST path
  xmlns:vectornator CDATA #FIXED "http://vectornator.io"
  vectornator:shadowOpacity CDATA #IMPLIED >
<!ATTLIST path
  xmlns:vectornator CDATA #FIXED "http://vectornator.io"
  vectornator:shadowRadius CDATA #IMPLIED >
<!ATTLIST path
  xmlns:vectornator CDATA #FIXED "http://vectornator.io"
  vectornator:shadowOffset CDATA #IMPLIED >
<!ATTLIST path
  xmlns:vectornator CDATA #FIXED "http://vectornator.io"
  vectornator:shadowAngle CDATA #IMPLIED >

<!ATTLIST image
  xmlns:vectornator CDATA #FIXED "http://vectornator.io"
  vectornator:blendMode CDATA #IMPLIED >
<!ATTLIST image
  xmlns:vectornator CDATA #FIXED "http://vectornator.io"
  vectornator:shadowColor CDATA #IMPLIED >
<!ATTLIST image
  xmlns:vectornator CDATA #FIXED "http://vectornator.io"
  vectornator:shadowOpacity CDATA #IMPLIED >
<!ATTLIST image
  xmlns:vectornator CDATA #FIXED "http://vectornator.io"
  vectornator:shadowRadius CDATA #IMPLIED >
<!ATTLIST image
  xmlns:vectornator CDATA #FIXED "http://vectornator.io"
  vectornator:shadowOffset CDATA #IMPLIED >
<!ATTLIST image
  xmlns:vectornator CDATA #FIXED "http://vectornator.io"
  vectornator:shadowAngle CDATA #IMPLIED >

<!ATTLIST g
  xmlns:vectornator CDATA #FIXED "http://vectornator.io"
  vectornator:blendMode CDATA #IMPLIED >
<!ATTLIST g
  xmlns:vectornator CDATA #FIXED "http://vectornator.io"
  vectornator:shadowColor CDATA #IMPLIED >
<!ATTLIST g
  xmlns:vectornator CDATA #FIXED "http://vectornator.io"
  vectornator:shadowOpacity CDATA #IMPLIED >
<!ATTLIST g
  xmlns:vectornator CDATA #FIXED "http://vectornator.io"
  vectornator:shadowRadius CDATA #IMPLIED >
<!ATTLIST g
  xmlns:vectornator CDATA #FIXED "http://vectornator.io"
  vectornator:shadowOffset CDATA #IMPLIED >
<!ATTLIST g
  xmlns:vectornator CDATA #FIXED "http://vectornator.io"
  vectornator:shadowAngle CDATA #IMPLIED >

<!ENTITY % SVG.filter.extra.content  "| feDropShadow" >
<!ELEMENT feDropShadow EMPTY>
<!ATTLIST feDropShadow
  xmlns:svg CDATA #FIXED "http://www.w3.org/Graphics/SVG/1.1/DTD/svg11.dtd"
  dx CDATA #IMPLIED>
<!ATTLIST feDropShadow
  xmlns:svg CDATA #FIXED "http://www.w3.org/Graphics/SVG/1.1/DTD/svg11.dtd"
  dy CDATA #IMPLIED>
<!ATTLIST feDropShadow
  xmlns:svg CDATA #FIXED "http://www.w3.org/Graphics/SVG/1.1/DTD/svg11.dtd"
  stdDeviation CDATA #IMPLIED>
<!ATTLIST feDropShadow
  xmlns:svg CDATA #FIXED "http://www.w3.org/Graphics/SVG/1.1/DTD/svg11.dtd"
  flood-opacity CDATA #IMPLIED>
<!ATTLIST feDropShadow
  xmlns:svg CDATA #FIXED "http://www.w3.org/Graphics/SVG/1.1/DTD/svg11.dtd"
  in CDATA #IMPLIED>
<!ATTLIST feDropShadow
  xmlns:svg CDATA #FIXED "http://www.w3.org/Graphics/SVG/1.1/DTD/svg11.dtd"
  result CDATA #IMPLIED>
<!ATTLIST feDropShadow
  xmlns:svg CDATA #FIXED "http://www.w3.org/Graphics/SVG/1.1/DTD/svg11.dtd"
  flood-color CDATA #IMPLIED>
]
>
<!-- Created with Vectornator (http://vectornator.io/) -->
<svg height="100%" stroke-miterlimit="10" style="fill-rule:nonzero;clip-rule:evenodd;stroke-linecap:round;stroke-linejoin:round;" version="1.1" viewBox="0 0 1620.18 1853.7" width="100%" xml:space="preserve" xmlns="http://www.w3.org/2000/svg" xmlns:vectornator="http://vectornator.io" xmlns:xlink="http://www.w3.org/1999/xlink">
<defs>
<filter color-interpolation-filters="sRGB" filterUnits="userSpaceOnUse" height="1782.61" id="Filter" width="1546.72" x="0.000881559" y="-0.000570852">
<feDropShadow dx="24.5" dy="42.4352" flood-color="#000000" flood-opacity="0.34718" in="SourceGraphic" result="Shadow" stdDeviation="5"/>
</filter>
<filter color-interpolation-filters="sRGB" filterUnits="userSpaceOnUse" height="400.208" id="Filter_2" width="262.674" x="176.423" y="169.015">
<feDropShadow dx="24.5" dy="42.4352" flood-color="#000000" flood-opacity="0.34718" in="SourceGraphic" result="Shadow" stdDeviation="5"/>
</filter>
<filter color-interpolation-filters="sRGB" filterUnits="userSpaceOnUse" height="400.231" id="Filter_3" width="262.635" x="1087.08" y="159.649">
<feDropShadow dx="24.5" dy="42.4352" flood-color="#000000" flood-opacity="0.34718" in="SourceGraphic" result="Shadow" stdDeviation="5"/>
</filter>
<filter color-interpolation-filters="sRGB" filterUnits="userSpaceOnUse" height="232.401" id="Filter_4" width="458.894" x="290.302" y="707.956">
<feDropShadow dx="24.5" dy="42.4352" flood-color="#000000" flood-opacity="0.34718" in="SourceGraphic" result="Shadow" stdDeviation="5"/>
</filter>
<filter color-interpolation-filters="sRGB" filterUnits="userSpaceOnUse" height="232.389" id="Filter_5" width="458.885" x="788.139" y="722.684">
<feDropShadow dx="24.5" dy="42.4352" flood-color="#000000" flood-opacity="0.34718" in="SourceGraphic" result="Shadow" stdDeviation="5"/>
</filter>
<filter color-interpolation-filters="sRGB" filterUnits="userSpaceOnUse" height="111.417" id="Filter_6" width="133.873" x="762.442" y="903.321">
<feDropShadow dx="24.5" dy="42.4352" flood-color="#000000" flood-opacity="0.34718" in="SourceGraphic" result="Shadow" stdDeviation="5"/>
</filter>
<filter color-interpolation-filters="sRGB" filterUnits="userSpaceOnUse" height="387.919" id="Filter_7" width="699.741" x="230.47" y="944.451">
<feDropShadow dx="24.5" dy="42.4352" flood-color="#000000" flood-opacity="0.34718" in="SourceGraphic" result="Shadow" stdDeviation="5"/>
</filter>
<filter color-interpolation-filters="sRGB" filterUnits="userSpaceOnUse" height="110.357" id="Filter_8" width="132.942" x="635.732" y="898.797">
<feDropShadow dx="24.5" dy="42.4352" flood-color="#000000" flood-opacity="0.34718" in="SourceGraphic" result="Shadow" stdDeviation="5"/>
</filter>
<filter color-interpolation-filters="sRGB" filterUnits="userSpaceOnUse" height="392.068" id="Filter_9" width="698.88" x="601.773" y="935.756">
<feDropShadow dx="24.5" dy="42.4352" flood-color="#000000" flood-opacity="0.34718" in="SourceGraphic" result="Shadow" stdDeviation="5"/>
</filter>
<filter color-interpolation-filters="sRGB" filterUnits="userSpaceOnUse" height="516.437" id="Filter_10" width="483.631" x="280.681" y="543.591">
<feDropShadow dx="24.5" dy="42.4352" flood-color="#000000" flood-opacity="0.34718" in="SourceGraphic" result="Shadow" stdDeviation="5"/>
</filter>
<filter color-interpolation-filters="sRGB" filterUnits="userSpaceOnUse" height="516.436" id="Filter_11" width="483.618" x="788.841" y="551.235">
<feDropShadow dx="24.5" dy="42.4352" flood-color="#000000" flood-opacity="0.34718" in="SourceGraphic" result="Shadow" stdDeviation="5"/>
</filter>
</defs>
<clipPath id="ArtboardFrame">
<rect height="1853.7" width="1620.18" x="0" y="0"/>
</clipPath>
<g clip-path="url(#ArtboardFrame)" id="Layer-2" vectornator:layerName="Layer-2">
<g filter="url(#Filter)" vectornator:shadowAngle="1.0472" vectornator:shadowColor="#000000" vectornator:shadowOffset="49" vectornator:shadowOpacity="0.34718" vectornator:shadowRadius="10">
<path d="M22.1805 1598.44C22.1805 1478.26 62.1135 1324.11 108.325 1254.65C115.497 1243.87 32.651 1147.84 59.4842 851.349C70.6388 728.098 149.095 613.07 160.502 567.251C173.388 515.487 74.2538 44.9283 111.633 28.0438C225.334-23.3164 507.18 292.74 572.628 367.633C597.968 396.623 619.763 372.645 756.015 369.136C889.729 365.682 926.596 389.25 942.566 365.636C989.421 296.38 1303.12-16.9331 1424.16 28.9324C1437.95 34.1564 1434.01 61.1502 1429.6 71.3462C1365.32 220.199 1345.42 385.899 1330.28 579.562C1325.39 642.004 1358.63 656.64 1381.11 783.689C1407.64 933.699 1425 997.943 1374.3 1241.62C1358.17 1319.11 1325.74 1307.6 1335.27 1335.62C1357.8 1401.9 1463.05 1650.9 1488.78 1706.73" fill="#ffffff" fill-opacity="0" fill-rule="evenodd" opacity="1" stroke="none"/>
<path d="M139.131 0.000900792C129.675 0.050349 120.268 1.32347 111.188 4.22997C106.22 5.82138 101.094 7.69089 96.8962 10.8512C85.9507 19.0947 82.8855 33.6281 81.6124 46.4945C80.5419 57.3085 80.5829 68.2522 80.9124 79.1025C81.296 91.7496 82.1519 104.387 83.2168 116.997C84.8615 136.467 87.0222 155.9 89.3705 175.295C92.291 199.422 95.5662 223.512 98.9664 247.575C108.033 311.725 118.19 375.697 127.259 439.847C131.097 466.99 134.841 494.197 137.439 521.489C138.294 530.468 139.053 539.447 139.305 548.472C139.39 551.515 139.417 554.586 139.277 557.628C139.212 559.028 139.138 560.447 138.868 561.829C138.563 563.378 138.015 564.937 137.526 566.439C136.629 569.202 135.621 571.928 134.552 574.634C131.377 582.652 127.748 590.483 124.08 598.286C114.596 618.465 104.652 638.402 95.2918 658.637C69.6439 714.079 47.3683 772.143 39.1733 833.027C37.4634 845.739 36.4946 858.517 35.5276 871.295C34.0249 891.138 32.987 911.018 32.4064 930.918C30.5584 994.218 33.4611 1057.99 44.949 1120.36C50.6985 1151.57 58.7011 1182.43 69.5953 1212.26C73.1393 1221.97 77.01 1231.54 81.029 1241.06C82.3199 1244.11 83.6042 1247.17 84.8502 1250.24C83.8861 1251.82 82.9228 1253.39 81.9913 1254.99C77.4282 1262.82 73.2327 1270.87 69.3032 1279.03C57.4233 1303.71 47.861 1329.46 39.6111 1355.57C27.6108 1393.52 18.392 1432.4 11.668 1471.62C4.49514 1513.49 0.136353 1555.86 0.000997576 1598.36C-0.0381964 1610.61 9.85822 1620.57 22.1105 1620.61C34.3618 1620.65 44.3255 1610.75 44.3647 1598.51C44.5056 1555.81 49.2079 1513.22 56.8195 1471.24C63.7348 1433.11 73.0133 1395.28 85.3169 1358.51C93.2421 1334.82 102.32 1311.4 113.842 1289.21C116.696 1283.71 119.704 1278.3 122.943 1273.02C123.788 1271.64 124.631 1270.26 125.509 1268.91C126.04 1268.09 126.634 1267.31 127.114 1266.46C127.753 1265.32 128.445 1264.18 128.952 1262.99C129.486 1261.72 129.891 1260.41 130.234 1259.08C130.516 1257.99 130.686 1256.87 130.818 1255.76C130.929 1254.81 130.955 1253.84 130.964 1252.9C131.011 1248.07 129.696 1243.37 128.076 1238.86C126.448 1234.34 124.523 1229.91 122.651 1225.48C117.16 1212.49 111.957 1199.39 107.454 1186.02C94.3547 1147.09 86.4024 1106.57 81.758 1065.82C75.9011 1014.43 75.2553 962.568 77.6456 910.934C78.2915 896.981 79.1931 883.027 80.2992 869.11C81.1961 857.835 82.136 846.56 83.7703 835.36C86.577 816.142 90.9703 797.176 96.4295 778.546C107.224 741.688 122.185 706.201 138.46 671.471C144.666 658.226 151.065 645.094 157.419 631.915C162.452 621.48 167.472 611.045 172.09 600.414C174.966 593.796 177.703 587.095 179.936 580.234C181.265 576.146 182.46 572.002 183.087 567.746C183.989 561.605 184.054 555.332 183.932 549.144C183.788 541.743 183.3 534.369 182.707 527.005C181.009 505.883 178.366 484.826 175.59 463.825C171.211 430.682 166.316 397.603 161.386 364.534C154.926 321.226 148.374 277.909 142.31 234.536C139.139 211.855 136.123 189.174 133.414 166.428C130.965 145.875 128.734 125.276 127.201 104.621C126.176 90.8162 125.376 76.9464 125.626 63.0906C125.715 58.1998 125.923 53.3016 126.559 48.449C126.648 47.7713 126.797 47.1096 126.909 46.4357C129.453 45.7749 132.054 45.3148 134.668 45.0945C143.43 44.3543 152.299 45.6461 160.802 47.7191C171.925 50.4315 182.667 54.5709 193.062 59.3283C206.721 65.579 219.862 72.9553 232.613 80.8852C263.241 99.9258 291.881 122.084 319.5 145.222C355.397 175.304 389.614 207.384 422.814 240.397C456.499 273.895 489.12 308.411 520.966 343.655C530.318 354.006 539.605 364.441 548.818 374.923C552.458 379.057 555.967 383.342 559.906 387.206C563.751 390.967 568.008 394.327 572.702 396.969C578.321 400.133 584.481 402.233 590.819 403.362C601.058 405.182 611.568 404.557 621.853 403.54C638.159 401.915 654.362 399.442 670.65 397.641C697.157 394.71 723.777 392.918 750.424 392.097C784.828 391.042 819.241 391.667 853.561 394.318C863.081 395.055 872.592 395.951 882.084 396.857C890.195 397.622 898.287 398.425 906.417 398.873C919.606 399.591 933.513 399.367 945.469 393.03C949.986 390.641 954.037 387.439 957.453 383.64C959.731 381.12 961.579 378.311 963.558 375.567C965.62 372.683 967.776 369.864 969.97 367.073C981.534 352.41 994.107 338.493 1006.81 324.81C1028.2 301.784 1050.43 279.514 1073.16 257.814C1095.35 236.645 1118.04 215.98 1141.33 196.034C1173.36 168.612 1206.33 142.245 1240.96 118.154C1265.1 101.373 1290.03 85.58 1316.3 72.3365C1328.3 66.2902 1340.61 60.761 1353.29 56.3238C1362.58 53.0747 1372.09 50.367 1381.82 48.7981C1389.52 47.5567 1397.44 47.0135 1405.21 47.9823C1407.01 48.2063 1408.78 48.6179 1410.55 49.0314C1410.55 49.3525 1410.58 49.6745 1410.57 49.9946C1410.51 53.126 1410.04 56.2659 1409.27 59.2984C1408.37 62.7938 1406.69 66.0513 1405.3 69.3619C1403.12 74.5449 1400.97 79.7465 1398.88 84.964C1383.84 122.523 1371.51 161.164 1361.25 200.29C1336.41 295.092 1323.84 392.647 1314.56 490.044C1312.44 512.23 1310.52 534.425 1308.72 556.639C1308.28 562.165 1307.85 567.671 1307.41 573.206C1307.06 577.602 1306.7 581.999 1306.57 586.413C1306.34 593.806 1306.61 601.235 1307.44 608.581C1308.34 616.542 1309.93 624.392 1312.05 632.12C1315.18 643.573 1319.4 654.68 1323.66 665.749C1327.76 676.427 1331.86 687.105 1335.56 697.922C1340.02 710.98 1343.93 724.206 1347.37 737.562C1354.57 765.582 1359.26 794.124 1364.34 822.582C1369.99 854.121 1375.61 885.706 1379.22 917.552C1381.35 936.322 1382.75 955.195 1383.24 974.086C1384.83 1034.48 1377.35 1094.75 1367.2 1154.19C1363.44 1176.24 1359.27 1198.21 1354.83 1220.14C1351.5 1236.66 1348.45 1253.37 1341.77 1268.94C1338.89 1275.66 1335.33 1282.07 1330.84 1287.84C1326.6 1293.26 1321.53 1298.01 1317.62 1303.68C1312.64 1310.89 1309.9 1319.34 1310.18 1328.12C1310.43 1335.84 1313.02 1343.01 1315.58 1350.19C1318.14 1357.41 1320.85 1364.6 1323.57 1371.75C1333.79 1398.65 1344.53 1425.36 1355.36 1452.02C1376.93 1505.11 1399.06 1557.99 1421.48 1610.72C1430.31 1631.49 1439.18 1652.24 1448.17 1672.94C1454.51 1687.51 1460.84 1702.07 1467.48 1716.51C1471.54 1725.33 1480.41 1730.45 1489.54 1730.17C1492.58 1730.07 1495.63 1729.36 1498.57 1728.01C1510.33 1722.6 1515.47 1708.7 1510.07 1696.94C1503.03 1681.66 1496.35 1666.2 1489.65 1650.77C1479.92 1628.35 1470.32 1605.92 1460.77 1583.42C1437.27 1528.05 1414.05 1472.49 1391.56 1416.71C1383.1 1395.72 1374.73 1374.7 1366.71 1353.55C1364.46 1347.61 1362.23 1341.68 1360.09 1335.7C1359.42 1333.84 1358.75 1331.97 1358.1 1330.1C1357.92 1329.57 1357.76 1329.01 1357.58 1328.47C1358.53 1327.35 1359.52 1326.24 1360.5 1325.14C1365.02 1320.06 1369.32 1314.8 1373.1 1309.13C1383.25 1293.88 1389.75 1276.51 1394.3 1258.85C1396.88 1248.82 1398.81 1238.63 1400.87 1228.48C1407.89 1193.7 1414.24 1158.77 1419.36 1123.66C1427.63 1066.87 1432.35 1009.59 1429.04 952.208C1426.45 907.294 1418.97 862.913 1411.07 818.681C1409.29 808.741 1407.5 798.8 1405.73 788.869C1404.02 779.265 1402.3 769.642 1400.37 760.084C1397.42 745.561 1394.07 731.141 1390.16 716.851C1384.68 696.868 1378 677.295 1370.62 657.937C1367.69 650.246 1364.65 642.574 1361.86 634.836C1358.76 626.231 1355.99 617.476 1354.49 608.441C1353.44 602.141 1353 595.747 1353.12 589.363C1353.25 582.185 1354 575.017 1354.57 567.867C1360.44 494.85 1367.21 421.824 1378.34 349.404C1387.73 288.353 1400.22 227.694 1418.48 168.649C1425.06 147.359 1432.39 126.293 1440.53 105.554C1442.77 99.8418 1445.09 94.1576 1447.47 88.4922C1449.08 84.6653 1450.88 80.8665 1452.26 76.9464C1453.72 72.7873 1454.76 68.479 1455.52 64.1407C1458.13 49.2918 1457.57 32.1049 1448.32 19.5147C1445.34 15.4667 1441.56 12.0394 1437.17 9.56787C1433.24 7.3427 1428.81 5.91839 1424.46 4.72651C1416.44 2.53313 1408.17 1.47466 1399.87 1.28428C1382.92 0.89507 1366.01 4.07969 1349.82 8.89679C1326.56 15.8149 1304.36 26.0791 1283.06 37.5977C1264.52 47.6192 1246.6 58.73 1229.1 70.4409C1206.21 85.7481 1184.06 102.101 1162.42 119.088C1137.15 138.922 1112.62 159.67 1088.66 181.044C1065.8 201.42 1043.43 222.374 1021.62 243.869C996.477 268.669 971.836 294.121 948.792 320.9C942.128 328.656 935.566 336.524 929.425 344.7C928.062 346.52 926.736 348.359 925.43 350.216C924.86 351.029 924.3 351.822 923.74 352.634C923.731 352.653 923.722 352.653 923.712 352.671C922.676 353.017 921.5 353.157 920.445 353.25C918.168 353.446 915.872 353.446 913.585 353.399C906.37 353.241 899.165 352.541 891.978 351.878C881.188 350.888 870.399 349.843 859.6 348.994C846.691 347.976 833.773 347.183 820.837 346.688C798.324 345.82 775.802 345.764 753.28 346.399C731.719 346.996 710.168 348.191 688.682 350.095C674.504 351.355 660.355 352.961 646.242 354.734C635.275 356.115 624.317 357.749 613.304 358.645C609.654 358.943 605.977 359.177 602.309 358.999C600.293 358.897 598.174 358.701 596.279 357.973C593.115 356.769 590.847 353.959 588.691 351.495C587.571 350.226 586.451 348.956 585.34 347.678C579.628 341.181 573.888 334.704 568.129 328.254C545.644 303.082 522.786 278.245 499.433 253.875C455.033 207.543 409.121 162.48 360.362 120.693C341.48 104.518 322.178 88.8281 302.204 73.9989C285.516 61.6057 268.339 49.8107 250.522 39.0855C236.217 30.4752 221.467 22.5463 206.129 15.9269C193.609 10.5236 180.653 5.96511 167.306 3.09312C158.078 1.10693 148.587-0.0476359 139.131 0.000900792Z" fill="#000000" fill-rule="evenodd" opacity="1" stroke="none"/>
</g>
<g filter="url(#Filter_2)" vectornator:shadowAngle="1.0472" vectornator:shadowColor="#000000" vectornator:shadowOffset="49" vectornator:shadowOpacity="0.34718" vectornator:shadowRadius="10">
<path d="M388.615 500.815C384.004 488.13 341.135 411.38 333.145 407.245C331.764 406.526 298.676 453.167 293.029 437.635C289.268 427.275 328.871 360.745 322.281 354.249C317.829 349.871 252.956 386.59 251.543 379.636C250.421 374.101 250.135 365.878 252.032 360.586C258.2 343.403 272.895 327.218 278.663 316.643C282.486 309.634 266.587 292.852 265.222 285.796C263.261 275.687 284.035 263.684 289.417 248.76C298.779 222.812 285.777 190.163 236.196 186.01C190.193 182.155 185.158 227.769 202.265 257.03C213.097 275.566 231.474 282.389 258.197 282.389" fill="#ffffff" fill-opacity="0" fill-rule="evenodd" opacity="1" stroke="none"/>
<path d="M235.88 169.172C232.429 168.967 228.975 168.948 225.525 169.2C219.139 169.676 212.809 171.076 206.916 173.606C202.745 175.398 198.824 177.759 195.307 180.634C192.303 183.088 189.611 185.898 187.287 189.006C173.859 206.964 174.062 231.894 181.482 252.213C182.861 255.984 184.499 259.671 186.411 263.208C189.023 268.034 192.145 272.579 195.833 276.658C198.48 279.58 201.425 282.258 204.583 284.62C218.641 295.148 235.853 298.387 253.03 299.003C254.024 300.767 255.092 302.503 256.209 304.248C257.919 306.918 259.687 309.568 261.256 312.331C261.37 312.527 261.465 312.742 261.576 312.938C260.689 314.273 259.781 315.626 258.864 316.933C255.371 321.936 251.82 326.864 248.509 331.988C244.845 337.653 241.445 343.524 238.738 349.722C237.424 352.727 236.211 355.798 235.471 358.999C234.308 364.03 234.099 369.285 234.422 374.428C234.556 376.575 234.8 378.721 235.151 380.84C235.278 381.615 235.369 382.399 235.588 383.146C235.915 384.266 236.173 385.414 236.667 386.468C237.256 387.728 237.982 388.923 238.825 390.034C239.599 391.042 240.504 391.947 241.48 392.768C242.339 393.497 243.297 394.122 244.28 394.673C245.136 395.139 246.072 395.503 246.992 395.83C253.419 398.163 260.393 396.129 266.535 393.907C271.438 392.143 276.207 390.034 280.972 387.934C286.459 385.507 291.891 382.968 297.332 380.467C296.763 381.727 296.25 383.024 295.671 384.284C292.479 391.275 289.249 398.238 286.16 405.285C283.56 411.24 281.008 417.251 279.048 423.457C276.682 430.943 275.363 438.625 279.193 445.942C280.601 448.63 282.569 451.057 285.003 452.886C286.608 454.1 288.381 455.043 290.276 455.715C292.031 456.331 293.869 456.713 295.736 456.825C306.899 457.507 316.401 449.06 323.737 441.686C325.025 440.389 326.304 439.054 327.555 437.719C329.16 435.993 330.663 434.163 332.221 432.38C335.404 437.309 338.531 442.283 341.555 447.314C348.863 459.476 355.854 471.843 362.584 484.331C365.001 488.812 367.381 493.31 369.668 497.865C371.077 500.656 372.571 503.475 373.672 506.405C376.761 514.666 385.974 518.866 394.234 515.767C400.422 513.452 404.324 507.694 404.585 501.477C404.669 499.405 404.333 497.277 403.568 495.205C401.794 490.51 399.489 486.021 397.202 481.559C394.001 475.278 390.65 469.071 387.262 462.892C378.404 446.745 369.276 430.691 359.317 415.207C357.002 411.594 354.603 408.02 352.083 404.557C350.385 402.214 348.63 399.918 346.633 397.818C345.26 396.381 343.767 394.999 342.078 393.935C341.536 393.599 341.014 393.123 340.388 392.974C337.374 392.255 334.331 391.406 331.232 391.341C329.869 391.313 328.581 391.863 327.293 392.367C328.572 389.53 329.907 386.73 331.139 383.874C333.621 378.115 336.076 372.263 337.738 366.205C339.688 359.018 340.202 351.253 335.516 344.906C334.956 344.15 334.34 343.394 333.649 342.75C332.735 341.891 331.755 341.098 330.7 340.416C329.795 339.828 328.796 339.371 327.788 338.96C327.013 338.633 326.182 338.4 325.361 338.204C318.622 336.524 311.519 339.193 305.294 341.611C303.744 342.218 302.204 342.834 300.664 343.478C298.676 344.308 296.707 345.148 294.737 346.016C292.311 347.08 289.893 348.191 287.476 349.283C283.961 350.87 280.465 352.475 276.948 354.071C275.459 354.743 273.946 355.35 272.456 356.022C273.283 354.575 274.015 353.082 274.905 351.673C279.284 344.775 284.274 338.307 288.82 331.521C291.573 327.396 294.448 323.149 295.382 318.193C296.492 312.266 294.99 306.274 292.525 300.898C290.435 296.333 287.691 292.105 285.003 287.886C284.312 286.813 283.678 285.73 283.014 284.648C284.024 283.406 285.059 282.212 286.132 281.026C292.087 274.521 298.284 268.09 302.466 260.231C305.994 253.613 307.917 246.09 308.626 238.652C309.214 232.389 308.859 226.014 307.487 219.863C306.601 215.906 305.303 212.06 303.604 208.373C301.85 204.574 299.656 200.953 297.136 197.612C284.993 181.576 265.629 173.307 246.204 170.311C242.793 169.788 239.33 169.387 235.88 169.172ZM228.034 202.661C231.996 202.362 235.979 202.754 239.904 203.296C252.508 205.041 267.484 209.951 273.302 222.402C274.02 223.942 274.558 225.566 274.935 227.218C275.477 229.598 275.645 232.043 275.519 234.479C275.362 237.494 274.788 240.621 273.652 243.43C272.916 245.251 271.743 246.903 270.56 248.452C268.674 250.916 266.589 253.221 264.493 255.508C261.58 258.691 258.535 261.939 255.889 265.43C244.075 265.224 230.583 263.806 221.879 255.191C219.896 253.221 218.206 250.944 216.804 248.536C215.474 246.249 214.312 243.86 213.362 241.396C212.592 239.389 211.951 237.345 211.437 235.263C210.996 233.481 210.655 231.67 210.417 229.841C209.375 221.898 210.163 211.239 217.27 206.096C218.325 205.34 219.476 204.714 220.684 204.229C223.017 203.305 225.537 202.848 228.034 202.661Z" fill="#000000" fill-rule="evenodd" opacity="1" stroke="none"/>
</g>
<g filter="url(#Filter_3)" vectornator:shadowAngle="1.0472" vectornator:shadowColor="#000000" vectornator:shadowOffset="49" vectornator:shadowOpacity="0.34718" vectornator:shadowRadius="10">
<path d="M1103.05 491.472C1107.66 478.778 1150.52 402.037 1158.51 397.902C1159.9 397.183 1192.98 443.824 1198.62 428.292C1200.68 422.627 1189.77 400.151 1180.53 379.897C1172.88 363.116 1166.4 347.846 1169.38 344.906C1173.83 340.528 1238.69 377.247 1240.1 370.284C1241.22 364.758 1241.51 356.535 1239.61 351.243C1233.45 334.06 1218.76 317.875 1212.99 307.3C1209.16 300.282 1225.06 283.5 1226.42 276.453C1228.38 266.335 1207.61 254.332 1202.23 239.408C1192.88 213.469 1205.88 180.82 1255.45 176.667C1301.44 172.812 1306.48 218.416 1289.37 247.687C1278.54 266.223 1260.17 273.037 1233.45 273.037" fill="#ffffff" fill-opacity="0" fill-rule="evenodd" opacity="1" stroke="none"/>
<path d="M1266.11 159.838C1258.66 159.288 1251.15 159.997 1243.79 161.238C1224.01 164.58 1204.72 173.456 1193.02 190.35C1191.11 193.094 1189.46 195.978 1188.06 199.012C1186.02 203.417 1184.55 208.093 1183.68 212.863C1182.7 218.276 1182.49 223.811 1183.01 229.29C1183.72 236.729 1185.64 244.252 1189.16 250.869C1193.5 259.018 1200.01 265.588 1206.14 272.365C1207.01 273.326 1207.86 274.306 1208.68 275.314C1208.01 276.397 1207.32 277.479 1206.63 278.553C1203.95 282.772 1201.23 287 1199.14 291.564C1196.67 296.94 1195.17 302.932 1196.28 308.859C1197.27 314.142 1200.45 318.697 1203.43 323.065C1207.82 329.514 1212.55 335.749 1216.72 342.339C1217.61 343.739 1218.32 345.223 1219.15 346.66C1217.68 345.988 1216.18 345.372 1214.72 344.7C1211.2 343.114 1207.67 341.508 1204.16 339.921C1201.41 338.671 1198.67 337.457 1195.9 336.244C1193.65 335.264 1191.38 334.284 1189.1 333.36C1182.24 330.56 1173.75 327.004 1166.27 328.87C1165.45 329.066 1164.65 329.272 1163.88 329.599C1162.87 330.009 1161.88 330.495 1160.96 331.083C1159.95 331.736 1158.99 332.483 1158.1 333.295C1157.44 333.911 1156.85 334.62 1156.3 335.339C1151.14 342.068 1152.02 350.45 1154.25 358.029C1156.07 364.226 1158.61 370.209 1161.19 376.117C1162.2 378.423 1163.28 380.71 1164.31 383.006C1163.05 382.501 1161.75 381.979 1160.4 382.007C1157.31 382.072 1154.26 382.922 1151.25 383.64C1150.62 383.79 1150.13 384.266 1149.59 384.602C1149.15 384.882 1148.74 385.171 1148.33 385.479C1146.89 386.552 1145.6 387.831 1144.39 389.156C1139.8 394.225 1136.03 400.133 1132.35 405.873C1122.39 421.357 1113.26 437.383 1104.4 453.53C1100.84 460.036 1097.32 466.598 1093.96 473.215C1091.87 477.359 1089.73 481.522 1088.1 485.871C1085.01 494.132 1089.21 503.316 1097.46 506.405C1099.53 507.18 1101.63 507.516 1103.7 507.432C1109.92 507.171 1115.68 503.269 1117.99 497.072C1119.08 494.141 1120.59 491.322 1121.99 488.532C1124.28 483.977 1126.66 479.478 1129.08 474.998C1135.81 462.509 1142.8 450.142 1150.11 437.981C1153.13 432.95 1156.26 427.956 1159.44 423.019C1161.41 425.268 1163.33 427.564 1165.39 429.73C1167.08 431.494 1168.79 433.239 1170.56 434.919C1178.21 442.162 1188.22 449.713 1199.46 446.941C1200.77 446.614 1201.98 446.204 1203.19 445.625C1205.01 444.766 1206.68 443.627 1208.15 442.274C1209.91 440.65 1211.37 438.718 1212.47 436.609C1216.37 429.16 1214.91 421.32 1212.47 413.713C1210.4 407.301 1207.74 401.066 1205.03 394.897C1202.01 388.055 1198.86 381.288 1195.76 374.484C1195.26 373.373 1194.8 372.235 1194.29 371.133C1200.07 373.784 1205.84 376.463 1211.65 379.029C1216.37 381.12 1221.13 383.192 1226 384.9C1231.9 386.963 1238.55 388.718 1244.67 386.496C1245.59 386.17 1246.5 385.778 1247.36 385.302C1248.34 384.76 1249.3 384.163 1250.16 383.435C1251.13 382.613 1252.06 381.708 1252.83 380.7C1253.68 379.589 1254.37 378.367 1254.96 377.107C1255.46 376.052 1255.72 374.904 1256.05 373.784C1256.26 373.037 1256.35 372.253 1256.48 371.479C1256.96 368.613 1257.25 365.72 1257.32 362.817C1257.46 357.973 1257.13 353.073 1255.87 348.378C1254.89 344.719 1253.33 341.172 1251.7 337.765C1249.02 332.147 1245.86 326.77 1242.46 321.572C1239.17 316.559 1235.63 311.715 1232.22 306.787C1231.48 305.723 1230.77 304.659 1230.06 303.576C1230.38 302.988 1230.7 302.4 1231.05 301.831C1232.45 299.488 1233.95 297.211 1235.43 294.915C1236.54 293.169 1237.64 291.405 1238.63 289.632C1255.8 289.025 1273.03 285.777 1287.08 275.258C1290.23 272.887 1293.16 270.218 1295.8 267.297C1299.48 263.218 1302.61 258.672 1305.22 253.847C1307.14 250.309 1308.77 246.623 1310.15 242.852C1317.73 222.103 1317.79 196.52 1303.5 178.534C1301.38 175.874 1298.96 173.428 1296.33 171.272C1292.81 168.397 1288.89 166.036 1284.72 164.244C1278.83 161.715 1272.49 160.314 1266.11 159.838ZM1258.3 193.29C1260.07 193.197 1261.85 193.187 1263.63 193.328C1266.13 193.514 1268.62 193.971 1270.95 194.895C1272.16 195.381 1273.31 195.978 1274.37 196.734C1281.69 202.026 1282.29 213.143 1281.1 221.263C1280.87 222.822 1280.57 224.371 1280.19 225.902C1279.68 227.983 1279.04 230.055 1278.27 232.062C1277.32 234.526 1276.16 236.916 1274.83 239.202C1273.42 241.61 1271.74 243.86 1269.76 245.829C1261.07 254.425 1247.6 255.891 1235.8 256.096C1232.94 252.325 1229.63 248.863 1226.5 245.418C1224.64 243.365 1222.78 241.321 1221.1 239.118C1219.92 237.569 1218.75 235.917 1218.01 234.097C1216.74 230.961 1216.13 227.442 1216.09 224.063C1216.05 221.646 1216.33 219.2 1216.97 216.867C1220.61 203.389 1234.58 197.21 1247.09 194.728C1249.05 194.336 1251.01 194.037 1252.98 193.794C1254.75 193.57 1256.52 193.393 1258.3 193.29Z" fill="#000000" fill-rule="evenodd" opacity="1" stroke="none"/>
</g>
<g filter="url(#Filter_4)" vectornator:shadowAngle="1.0472" vectornator:shadowColor="#000000" vectornator:shadowOffset="49" vectornator:shadowOpacity="0.34718" vectornator:shadowRadius="10">
<path d="M307.105 792.36C312.154 792.36 317.259 791.361 322.253 792.155C324.829 792.565 378.861 802.926 380.504 801.264C382.184 799.566 387.775 768.139 390.734 762.063C393.973 755.417 403.306 725.41 405.35 727.081C407.282 728.658 437.299 774.99 446.362 795.393C450.338 804.316 478.507 857.061 480.635 864.061C481.326 866.32 480.458 870.977 482.819 870.809C485.293 870.632 484.378 866.105 485.125 863.734C487.458 856.351 489.437 811.354 491.938 803.542C497.175 787.171 507.638 725.121 509.971 725.251C512.547 725.4 523.01 752.3 526.921 762.24C531.382 773.599 543.889 813.977 543.665 821.014C543.591 823.357 555.211 846.952 557.433 846.206C560.046 845.319 559.523 841.082 560.205 838.412C561.427 833.559 568.166 775.886 570.584 773.571C578.499 765.992 606.574 775.877 612.37 775.681C619.735 775.438 655.202 779.237 657.47 778.677C671.891 775.121 682.13 769.698 696.961 769.698" fill="#ffffff" fill-opacity="0" fill-rule="evenodd" opacity="1" stroke="none"/>
<path d="M511.866 707.956C508.786 707.993 505.659 708.46 502.738 709.412C500.973 709.991 499.545 711.307 498.099 712.445C497.277 713.099 496.633 713.948 495.971 714.751C495 715.927 494.244 717.308 493.609 718.69C492.424 721.247 491.724 724.047 491.033 726.772C490.24 729.965 489.512 733.147 488.821 736.367C485.657 751.124 482.904 765.974 479.749 780.73C478.834 785.024 477.901 789.308 476.837 793.564C476.305 795.673 475.567 797.745 475.082 799.864C474.233 803.56 473.757 807.331 473.337 811.093C470.116 804.914 466.878 798.744 463.77 792.509C462.594 790.167 461.548 787.759 460.41 785.397C459.065 782.588 457.619 779.834 456.153 777.081C449.386 764.396 441.854 752.085 434.191 739.924C430.234 733.642 426.239 727.407 422.03 721.284C421.003 719.81 419.985 718.307 418.847 716.907C418.38 716.328 417.876 715.675 417.297 715.19C416.327 714.368 415.431 713.388 414.301 712.8C412.313 711.773 410.25 710.672 408.029 710.411C405.238 710.075 402.382 710.439 399.657 711.083C397.986 711.465 396.521 712.501 395.074 713.416C394.187 713.976 393.441 714.723 392.685 715.451C390.034 717.999 388.363 721.518 386.907 724.84C383.64 732.326 381.102 740.11 378.301 747.773C376.519 752.664 374.288 757.396 372.879 762.418C370.956 769.25 369.528 776.194 367.979 783.12C363.508 782.429 359.056 781.701 354.594 780.936C347.697 779.75 340.79 778.5 333.911 777.23C329.571 776.427 325.175 775.401 320.76 775.13C316.111 774.85 311.51 775.503 306.871 775.569C297.603 775.699 290.173 783.334 290.304 792.603C290.444 801.871 298.07 809.272 307.338 809.142C310.726 809.086 314.086 808.694 317.465 808.647C318.361 808.629 319.229 808.769 320.116 808.815C320.48 808.881 320.834 808.955 321.198 809.021C322.225 809.217 323.261 809.413 324.288 809.608C327.377 810.178 330.467 810.738 333.565 811.298C343.254 813.062 352.961 814.826 362.696 816.347C364.702 816.655 366.709 816.935 368.707 817.215C372.953 817.822 377.769 818.653 382.072 818.093C383.062 817.962 384.387 817.71 385.302 817.393C386.319 817.038 387.346 816.739 388.251 816.17C389.875 815.153 391.425 813.995 392.834 812.698C393.627 811.961 394.206 811.027 394.813 810.131C395.419 809.245 395.961 808.022 396.39 807.014C398.061 803.038 398.901 798.651 399.862 794.469C401.01 789.467 402.074 784.445 403.241 779.442C403.997 776.232 404.744 773.002 405.752 769.847C406.05 768.914 406.414 768.223 406.89 767.113C407.497 765.684 408.029 764.238 408.58 762.791C414.105 771.677 419.537 780.628 424.568 789.803C426.183 792.752 427.751 795.729 429.235 798.754C431.186 802.739 433.015 806.78 435.003 810.747C440.893 822.442 446.96 834.044 452.887 845.711C455.64 851.125 458.375 856.557 461.025 862.017C461.837 863.697 462.649 865.368 463.415 867.066C463.602 867.486 463.788 867.925 463.966 868.354C464.106 870.65 464.423 872.975 465.17 875.149C465.496 876.111 465.879 877.053 466.364 877.949C466.952 879.023 467.615 880.068 468.371 881.039C469.071 881.916 469.855 882.728 470.704 883.456C471.628 884.24 472.627 884.968 473.682 885.556C474.783 886.172 475.95 886.667 477.154 887.05C478.358 887.423 479.609 887.684 480.859 887.834C481.923 887.955 482.997 887.936 484.07 887.862C485.069 887.796 486.058 887.638 487.038 887.395C488.149 887.124 489.26 886.779 490.305 886.312C491.332 885.864 492.302 885.304 493.226 884.688C494.104 884.091 494.935 883.4 495.7 882.672C497.539 880.917 498.92 878.799 499.937 876.484C500.843 874.421 501.365 872.191 501.627 869.95C501.729 869.036 501.739 868.625 501.804 867.738C501.813 867.542 501.841 867.374 501.86 867.178C501.86 867.15 501.869 867.038 501.86 867.066C502.383 864.938 502.821 862.782 503.111 860.617C503.745 855.959 504.175 851.274 504.604 846.588C505.444 837.283 506.135 827.94 507.143 818.643C507.358 816.646 507.442 814.602 507.75 812.614C507.974 811.177 508.328 809.749 508.599 808.321C508.636 808.087 508.664 807.854 508.711 807.621C508.739 807.49 508.776 807.462 508.804 807.387C508.87 807.154 508.935 806.93 509.01 806.687C509.299 805.688 509.579 804.69 509.85 803.682C510.531 801.124 511.138 798.539 511.744 795.953C512.893 791.053 513.919 786.125 514.955 781.197C518.306 791.455 521.451 801.806 524.112 812.259C524.653 814.369 525.185 816.487 525.633 818.615C525.773 819.306 525.894 819.997 526.006 820.688C526.062 821.005 526.062 821.08 526.1 821.36C526.1 821.378 526.1 821.434 526.1 821.416C526.137 822.06 526.137 822.704 526.212 823.348C526.333 824.356 526.538 825.308 526.8 826.288C527.49 828.91 528.61 831.412 529.712 833.876C531.084 836.937 532.54 839.971 534.089 842.948C534.948 844.6 535.853 846.224 536.768 847.848C539.437 852.543 542.657 858.087 547.418 860.943C548.398 861.522 549.378 862.119 550.451 862.484C552.168 863.072 553.942 863.688 555.762 863.772C558.077 863.874 560.401 863.473 562.678 863.044C563.649 862.857 564.526 862.362 565.413 861.933C566.225 861.541 567.028 861.083 567.774 860.589C571.349 858.237 573.99 854.765 575.568 850.816C576.66 848.063 577.136 845.123 577.434 842.183C577.537 841.184 577.92 839.644 578.107 838.487C578.564 835.565 578.956 832.653 579.357 829.732C580.888 818.653 582.363 807.546 584.024 796.485C584.416 793.881 584.827 791.287 585.247 788.692C586.591 788.86 587.926 789.047 589.242 789.28C593.404 789.999 597.511 790.951 601.637 791.847C604.437 792.444 607.265 793.06 610.13 793.275C611.316 793.359 612.501 793.331 613.686 793.359C615.432 793.396 617.168 793.508 618.904 793.62C626.044 794.096 633.194 794.74 640.315 795.347C644.217 795.673 648.109 796 652.01 796.243C654.372 796.392 656.845 796.635 659.188 796.308C663.276 795.739 667.299 794.423 671.237 793.219C677.332 791.343 683.371 789.177 689.671 788.048C692.164 787.6 694.693 787.469 697.222 787.441C707.013 787.301 714.835 779.237 714.695 769.446C714.555 759.655 706.491 751.833 696.7 751.973C692.247 752.039 687.842 752.365 683.455 753.14C677.892 754.12 672.479 755.669 667.093 757.368C663.995 758.339 660.905 759.347 657.788 760.252C656.929 760.504 656.08 760.756 655.221 760.98C655.109 760.98 654.997 760.962 654.876 760.952C654.138 760.915 653.392 760.859 652.654 760.812C650.302 760.644 647.95 760.448 645.598 760.252C638.215 759.646 630.842 759.002 623.459 758.479C620.752 758.283 618.036 758.096 615.32 758.012C614.536 757.984 613.733 757.994 612.93 758.012C612.846 757.994 612.772 757.994 612.697 757.975C612.566 757.956 612.445 757.947 612.314 757.919C611.95 757.854 611.633 757.788 611.269 757.714C609.972 757.461 608.684 757.182 607.386 756.901C604.166 756.192 600.946 755.492 597.707 754.885C585.312 752.571 570.798 750.984 560.167 759.235C558.683 760.383 557.395 761.792 556.228 763.258C554.885 764.947 553.988 767.028 553.307 769.063C552.215 772.339 551.58 775.793 551.011 779.218C548.874 772.339 546.746 765.46 544.272 758.712C542.041 752.627 539.559 746.616 537.095 740.624C535.228 736.097 533.314 731.57 531.261 727.118C529.87 724.112 528.452 721.079 526.706 718.251C525.53 716.338 524.177 714.461 522.506 712.949C521.871 712.361 521.218 711.755 520.499 711.279C519.351 710.523 518.194 709.767 516.906 709.272C515.282 708.647 513.602 707.937 511.866 707.956Z" fill="#000000" fill-rule="evenodd" opacity="1" stroke="none"/>
</g>
<g filter="url(#Filter_5)" vectornator:shadowAngle="1.0472" vectornator:shadowColor="#000000" vectornator:shadowOffset="49" vectornator:shadowOpacity="0.34718" vectornator:shadowRadius="10">
<path d="M1195.73 807.088C1190.68 807.088 1185.58 806.09 1180.58 806.883C1178.01 807.294 1123.97 817.654 1122.33 815.983C1120.65 814.285 1115.06 782.858 1112.1 776.792C1108.86 770.137 1099.53 740.138 1097.49 741.8C1095.55 743.377 1065.54 789.719 1056.47 810.113C1052.5 819.045 1024.34 871.789 1022.2 878.789C1021.51 881.048 1022.38 885.706 1020.02 885.538C1017.54 885.36 1018.47 880.824 1017.71 878.463C1015.38 871.08 1013.4 826.082 1010.9 818.27C1005.66 801.899 995.199 739.849 992.865 739.98C990.298 740.129 979.826 767.019 975.915 776.969C971.454 788.328 958.947 828.705 959.171 835.743C959.245 838.085 947.625 861.681 945.413 860.934C942.8 860.047 943.313 855.81 942.632 853.131C941.409 848.287 934.67 790.605 932.253 788.3C924.338 780.721 896.262 790.596 890.466 790.409C883.102 790.157 847.634 793.965 845.366 793.405C830.945 789.849 820.706 784.426 805.875 784.426" fill="#ffffff" fill-opacity="0" fill-rule="evenodd" opacity="1" stroke="none"/>
<path d="M990.998 722.684C989.262 722.666 987.554 723.347 985.921 723.972C984.642 724.467 983.485 725.26 982.337 726.017C981.609 726.493 980.965 727.09 980.321 727.678C978.65 729.199 977.306 731.066 976.121 732.979C974.198 736.115 972.63 739.476 971.108 742.817C969.064 747.297 967.17 751.852 965.303 756.407C962.988 762.044 960.664 767.682 958.564 773.413C956.091 780.161 953.953 787.04 951.825 793.909C951.219 790.251 950.537 786.499 949.258 783.036C948.614 781.272 947.784 779.47 946.608 777.986C944.89 775.83 943.033 774.085 940.746 772.591C930.05 765.619 915.788 767.514 903.934 769.819C900.798 770.435 897.662 771.126 894.545 771.807C893.359 772.059 892.202 772.339 891.017 772.563C890.737 772.619 890.419 772.666 890.139 772.713C890.055 772.722 889.981 772.731 889.906 772.741C888.506 772.675 887.05 772.759 885.678 772.825C883.186 772.946 880.694 773.114 878.211 773.291C870.828 773.833 863.473 774.477 856.099 775.074C853.859 775.251 851.638 775.447 849.389 775.597C848.801 775.634 848.203 775.681 847.615 775.709C846.756 775.485 845.907 775.233 845.048 774.981C841.931 774.085 838.87 773.067 835.771 772.097C830.385 770.407 824.944 768.849 819.381 767.868C814.994 767.094 810.579 766.767 806.136 766.702C796.346 766.562 788.281 774.383 788.141 784.174C788.001 793.965 795.851 802.002 805.642 802.142C808.171 802.17 810.691 802.338 813.193 802.776C820.1 804.018 826.68 806.463 833.381 808.47C836.751 809.478 840.186 810.551 843.676 811.037C846.308 811.401 849.081 811.093 851.722 810.915C855.745 810.654 859.758 810.327 863.772 809.982C870.8 809.394 877.819 808.731 884.856 808.293C886.284 808.208 887.712 808.124 889.15 808.087C890.335 808.059 891.521 808.087 892.706 808.003C895.879 807.76 898.997 807.051 902.096 806.37C906.212 805.464 910.337 804.531 914.491 803.859C915.527 803.691 916.572 803.579 917.617 803.448C918.131 806.631 918.625 809.805 919.101 812.987C920.67 823.46 922.023 833.979 923.479 844.46C923.88 847.382 924.272 850.294 924.73 853.215C924.916 854.373 925.327 855.913 925.43 856.911C925.728 859.851 926.176 862.792 927.268 865.554C929.172 870.342 932.719 874.421 937.423 876.661C938.31 877.091 939.187 877.557 940.158 877.744C942.436 878.173 944.76 878.603 947.074 878.5C948.894 878.425 950.659 877.809 952.385 877.221C953.459 876.848 954.439 876.223 955.419 875.644C960.179 872.788 963.427 867.272 966.087 862.577C967.011 860.953 967.879 859.329 968.747 857.677C970.418 854.457 972.014 851.162 973.47 847.848C974.45 845.618 975.411 843.378 976.037 841.016C976.298 840.036 976.503 839.084 976.625 838.076C976.69 837.441 976.699 836.788 976.737 836.153C976.737 836.125 976.737 836.107 976.737 836.088C976.746 836.004 976.755 835.92 976.765 835.827C976.783 835.687 976.802 835.528 976.821 835.388C976.858 835.192 976.905 835.033 976.942 834.837C977.082 834.044 977.231 833.232 977.409 832.448C977.903 830.189 978.463 827.968 979.042 825.737C981.655 815.694 984.689 805.735 987.909 795.869C989.076 801.423 990.205 806.976 991.521 812.493C992.118 814.985 992.734 817.467 993.425 819.932C993.621 820.66 993.817 821.397 994.032 822.116C994.078 822.265 994.135 822.386 994.181 822.554C994.219 822.722 994.237 822.89 994.265 823.049C994.368 823.6 994.452 824.141 994.555 824.682C994.723 825.569 994.947 826.446 995.087 827.342C995.469 829.779 995.581 832.289 995.843 834.753C996.795 843.583 997.429 852.469 998.232 861.317C998.699 866.385 999.165 871.453 999.893 876.484C1000.15 878.313 1000.53 880.124 1000.98 881.916C1000.99 882.103 1001.02 882.28 1001.03 882.467C1001.06 882.803 1001.06 883.148 1001.09 883.484C1001.15 884.259 1001.24 884.996 1001.36 885.762C1001.64 887.628 1002.14 889.486 1002.9 891.222C1003.92 893.527 1005.33 895.646 1007.15 897.401C1007.92 898.138 1008.73 898.819 1009.61 899.417C1010.53 900.033 1011.5 900.602 1012.52 901.05C1013.57 901.507 1014.68 901.853 1015.79 902.124C1016.77 902.366 1017.76 902.525 1018.77 902.59C1019.83 902.665 1020.91 902.656 1021.98 902.534C1023.23 902.385 1024.48 902.161 1025.68 901.778C1026.89 901.395 1028.05 900.901 1029.15 900.285C1030.21 899.697 1031.21 898.969 1032.12 898.185C1032.98 897.457 1033.77 896.654 1034.46 895.767C1035.22 894.806 1035.88 893.751 1036.47 892.678C1036.96 891.782 1037.34 890.811 1037.67 889.85C1038.41 887.675 1038.7 885.379 1038.83 883.083C1038.85 883.046 1038.88 883.027 1038.89 882.99C1039.21 882.28 1039.53 881.571 1039.85 880.862C1040.71 879.023 1041.59 877.203 1042.48 875.383C1045.08 870.072 1047.73 864.798 1050.42 859.543C1056.32 847.96 1062.32 836.424 1068.15 824.804C1070.03 821.061 1071.76 817.243 1073.6 813.482C1075.23 810.178 1076.95 806.911 1078.73 803.682C1083.63 794.815 1088.87 786.134 1094.23 777.52C1094.26 777.604 1094.28 777.678 1094.31 777.753C1094.84 779.125 1095.38 780.488 1095.95 781.841C1096.41 782.952 1096.79 783.614 1097.08 784.548C1098.08 787.702 1098.84 790.96 1099.59 794.18C1100.84 799.519 1101.98 804.876 1103.21 810.215C1103.89 813.174 1104.59 816.133 1105.48 819.026C1106.1 821.033 1106.83 823.086 1108.02 824.832C1108.63 825.728 1109.21 826.661 1110 827.398C1111.41 828.696 1112.96 829.881 1114.58 830.899C1115.49 831.468 1116.52 831.767 1117.53 832.121C1120.91 833.307 1124.73 833.027 1128.23 832.681C1132.81 832.215 1137.34 831.515 1141.89 830.777C1151.02 829.303 1160.16 827.688 1169.27 826.026C1172.36 825.466 1175.46 824.906 1178.55 824.337C1179.58 824.141 1180.61 823.945 1181.64 823.749C1182 823.684 1182.36 823.618 1182.72 823.553C1183.61 823.497 1184.48 823.357 1185.37 823.376C1188.75 823.422 1192.11 823.814 1195.5 823.87C1204.77 824.001 1212.39 816.599 1212.52 807.331C1212.66 798.063 1205.26 790.428 1195.99 790.297C1191.35 790.232 1186.72 789.579 1182.08 789.859C1177.22 790.148 1172.35 791.315 1167.58 792.192C1160.57 793.48 1153.57 794.759 1146.55 795.953C1142.67 796.616 1138.77 797.213 1134.89 797.82C1134.87 797.755 1134.84 797.69 1134.83 797.615C1133.29 790.773 1131.85 783.904 1129.96 777.146C1128.54 772.125 1126.32 767.392 1124.53 762.502C1121.73 754.839 1119.2 747.055 1115.92 739.578C1114.47 736.255 1112.8 732.737 1110.15 730.179C1109.4 729.451 1108.65 728.705 1107.76 728.145C1106.32 727.23 1104.84 726.194 1103.18 725.811C1100.44 725.167 1097.59 724.812 1094.81 725.139C1092.59 725.4 1090.52 726.502 1088.53 727.529C1087.41 728.117 1086.51 729.097 1085.53 729.918C1084.83 730.515 1084.26 731.299 1083.69 732.018C1082.57 733.455 1081.52 734.977 1080.49 736.479C1076.21 742.733 1072.13 749.117 1068.09 755.529C1060.62 767.402 1053.29 779.433 1046.68 791.819C1045.22 794.563 1043.8 797.316 1042.45 800.126C1041.32 802.487 1040.24 804.895 1039.07 807.247C1035.96 813.482 1032.72 819.642 1029.5 825.821C1029.08 822.06 1028.6 818.289 1027.75 814.593C1027.26 812.474 1026.56 810.402 1026.03 808.293C1024.95 804.036 1024 799.752 1023.09 795.459C1019.92 780.702 1017.18 765.853 1014.02 751.096C1013.22 747.428 1012.43 743.76 1011.48 740.129C1010.79 737.516 1010.04 734.827 1008.76 732.429C1008.25 731.458 1007.56 730.319 1006.87 729.479C1006.2 728.677 1005.56 727.827 1004.74 727.174C1003.29 726.035 1001.85 724.691 1000.1 724.112C997.177 723.16 994.078 722.722 990.998 722.684Z" fill="#000000" fill-rule="evenodd" opacity="1" stroke="none"/>
</g>
<g filter="url(#Filter_6)" vectornator:shadowAngle="1.0472" vectornator:shadowColor="#000000" vectornator:shadowOffset="49" vectornator:shadowOpacity="0.34718" vectornator:shadowRadius="10">
<path d="M837.059 936.593C815.843 934.157 810.421 941.931 788.617 929.471" fill="#ffffff" fill-opacity="0" fill-rule="evenodd" opacity="1" stroke="none"/>
<path d="M786.48 903.411C778.108 904.102 770.211 908.806 765.797 916.684C758.722 929.275 763.202 945.226 775.802 952.292C780.59 954.915 785.5 957.304 790.68 959.059C796.234 960.953 802.104 962.073 807.975 962.269C811.279 962.381 814.574 962.204 817.86 961.887C821.668 961.523 825.438 960.916 829.265 960.897C830.983 960.888 832.719 961.047 834.427 961.224C848.026 962.68 860.216 952.824 861.672 939.225C863.128 925.626 853.309 913.445 839.71 911.98C833.951 911.345 828.173 911.112 822.377 911.289C819.932 911.354 817.458 911.438 815.003 911.429C813.501 911.429 811.979 911.364 810.514 910.99C809.842 910.822 808.778 910.328 808.031 910.029C805.726 909.105 803.56 907.92 801.414 906.678C796.691 904.028 791.492 902.992 786.48 903.411Z" fill="#000000" fill-rule="evenodd" opacity="1" stroke="none"/>
</g>
<g filter="url(#Filter_7)" vectornator:shadowAngle="1.0472" vectornator:shadowColor="#000000" vectornator:shadowOffset="49" vectornator:shadowOpacity="0.34718" vectornator:shadowRadius="10">
<path d="M255.239 1026.64C291.191 1043.52 321.469 1044.82 329.319 1048.08C344.831 1054.54 329.141 1094.18 331.736 1111.1C343.571 1188.31 410.549 1250.76 530.337 1254.33C695.85 1259.26 734.949 1155.72 803.878 1053.14C811.569 1041.7 851.059 998.419 869.54 970.595" fill="#ffffff" fill-opacity="0" fill-rule="evenodd" opacity="1" stroke="none"/>
<path d="M869.484 944.452C861.093 944.47 852.879 948.502 847.849 955.997C842.183 964.435 835.976 972.48 829.676 980.442C821.304 990.998 812.614 1001.3 803.952 1011.63C799.622 1016.77 795.281 1021.93 791.025 1027.14C787.983 1030.86 784.902 1034.61 782.214 1038.6C764.546 1064.9 748.399 1092.21 730.739 1118.52C716.067 1140.37 700.246 1161.79 680.861 1179.72C667.485 1192.08 652.421 1202.58 635.91 1210.34C605.865 1224.46 572.376 1229.18 539.428 1229.06C522.039 1229.01 504.632 1227.69 487.505 1224.6C456.9 1219.08 426.594 1207.75 402.364 1187.83C383.902 1172.63 369.687 1152.71 361.884 1130.07C360.12 1124.95 358.673 1119.74 357.562 1114.44C357.217 1112.76 356.89 1111.08 356.601 1109.39C356.47 1108.62 356.302 1107.82 356.283 1107.02C356.209 1104.18 356.619 1101.29 357.012 1098.48C357.515 1094.86 358.113 1091.27 358.673 1087.66C361.258 1071.24 363.937 1052.28 354.034 1037.67C352.391 1035.24 350.469 1032.98 348.266 1031.05C345.475 1028.59 342.292 1026.65 338.867 1025.22C334.891 1023.54 330.607 1022.62 326.388 1021.8C322.206 1020.99 318.016 1020.26 313.843 1019.44C304.015 1017.5 294.289 1015.07 284.797 1011.85C278.267 1009.64 271.885 1007.04 265.631 1004.16C253.218 998.419 238.499 1003.84 232.758 1016.26C231.324 1019.36 230.589 1022.61 230.484 1025.82C230.166 1035.47 235.525 1044.83 244.834 1049.13C259.993 1056.15 275.78 1061.54 292.031 1065.41C298.004 1066.82 304.043 1068.04 310.082 1069.17C310.427 1069.23 310.782 1069.31 311.137 1069.37C311.118 1069.54 311.118 1069.71 311.099 1069.87C310.623 1074.32 309.886 1078.73 309.177 1083.14C307.851 1091.45 306.423 1099.87 306.638 1108.31C306.787 1113.77 307.842 1119.19 308.943 1124.53C313.601 1147.07 322.598 1168.65 335.46 1187.73C346.334 1203.88 359.877 1218.15 375.24 1230.09C411.156 1257.98 455.612 1272.46 500.404 1277.6C515.011 1279.28 529.74 1280 544.44 1279.93C583.231 1279.73 622.255 1273.38 657.638 1256.98C673.207 1249.76 687.907 1240.71 701.394 1230.12C732.924 1205.36 757.172 1173.05 779.069 1139.81C794.805 1115.92 809.618 1091.46 825.532 1067.68C826.587 1066.11 827.818 1064.61 829.004 1063.13C830.721 1060.98 832.495 1058.86 834.249 1056.74C838.748 1051.34 843.294 1045.96 847.821 1040.59C855.782 1031.1 863.706 1021.6 871.416 1011.91C878.323 1003.23 885.052 994.377 891.25 985.165C894.265 980.666 895.721 975.589 895.711 970.558C895.683 962.157 891.623 953.916 884.128 948.885C879.629 945.861 874.524 944.433 869.484 944.452Z" fill="#000000" fill-rule="evenodd" opacity="1" stroke="none"/>
</g>
<g filter="url(#Filter_8)" vectornator:shadowAngle="1.0472" vectornator:shadowColor="#000000" vectornator:shadowOffset="49" vectornator:shadowOpacity="0.34718" vectornator:shadowRadius="10">
<path d="M660.504 928.976C683.147 930.563 691.482 934.409 708.021 924.954" fill="#ffffff" fill-opacity="0" fill-rule="evenodd" opacity="1" stroke="none"/>
<path d="M710.177 898.885C705.156 898.474 699.966 899.501 695.244 902.151C693.125 903.384 690.885 904.616 688.533 905.185C685.359 905.96 681.943 905.689 678.704 905.54C673.226 905.288 667.784 904.653 662.305 904.289C648.669 903.29 636.787 913.539 635.798 927.184C634.808 940.821 645.085 952.674 658.721 953.664C663.369 954.028 667.989 954.56 672.61 955.213C679.059 956.119 685.49 956.987 692.033 956.641C695.85 956.436 699.63 955.848 703.345 954.952C709.487 953.468 715.311 950.789 720.818 947.774C733.418 940.709 737.889 924.758 730.823 912.157C726.409 904.289 718.54 899.585 710.177 898.885Z" fill="#000000" fill-rule="evenodd" opacity="1" stroke="none"/>
</g>
<g filter="url(#Filter_9)" vectornator:shadowAngle="1.0472" vectornator:shadowColor="#000000" vectornator:shadowOffset="49" vectornator:shadowOpacity="0.34718" vectornator:shadowRadius="10">
<path d="M1241.4 1022.13C1205.44 1039 1175.17 1040.3 1167.31 1043.57C1151.81 1050.02 1167.5 1089.66 1164.9 1106.59C1153.07 1183.79 1086.09 1246.25 966.302 1249.81C800.788 1254.74 769.306 1145.62 692.5 1043.14C687.749 1036.79 649.976 991.801 627.92 961.915" fill="#ffffff" fill-opacity="0" fill-rule="evenodd" opacity="1" stroke="none"/>
<path d="M626.753 935.781C621.723 936.005 616.701 937.666 612.342 940.886C600.741 949.492 598.323 965.891 606.92 977.493C620.873 996.3 635.564 1014.5 650.349 1032.65C655.025 1038.39 659.729 1044.11 664.415 1049.83C666.823 1052.79 669.333 1055.7 671.611 1058.76C677.706 1066.92 683.605 1075.19 689.373 1083.58C702.533 1102.7 714.966 1122.3 727.967 1141.53C747.904 1171.03 769.549 1199.88 796.98 1222.88C802.916 1227.87 809.105 1232.56 815.526 1236.91C825.532 1243.68 836.135 1249.58 847.149 1254.52C883.4 1270.84 923.46 1276.16 962.942 1275.3C985.081 1274.82 1007.21 1272.47 1028.83 1267.63C1062.15 1260.15 1094.3 1246.59 1121.38 1225.56C1136.74 1213.63 1150.31 1199.35 1161.19 1183.22C1174.05 1164.12 1183.05 1142.58 1187.7 1120.04C1188.81 1114.7 1189.87 1109.26 1190.01 1103.79C1190.24 1094.8 1188.62 1085.86 1187.21 1077.02C1186.57 1072.99 1185.96 1068.94 1185.55 1064.88C1186.35 1064.74 1187.14 1064.57 1187.94 1064.42C1193.52 1063.36 1199.07 1062.23 1204.59 1060.92C1220.84 1057.04 1236.63 1051.63 1251.79 1044.61C1264.2 1038.87 1269.6 1024.15 1263.86 1011.74C1258.13 999.324 1243.44 993.92 1231.02 999.66C1224.77 1002.55 1218.38 1005.15 1211.86 1007.36C1202.36 1010.58 1192.61 1012.98 1182.78 1014.92C1178.22 1015.82 1173.65 1016.6 1169.09 1017.52C1165.26 1018.28 1161.4 1019.17 1157.78 1020.69C1154.36 1022.13 1151.17 1024.1 1148.39 1026.56C1146.18 1028.49 1144.23 1030.71 1142.59 1033.15C1132.37 1048.24 1135.53 1067.91 1138.21 1084.8C1138.82 1088.69 1139.5 1092.59 1139.96 1096.5C1140.2 1098.48 1140.42 1100.5 1140.36 1102.51C1140.34 1103.63 1140.04 1104.76 1139.84 1105.86C1139.6 1107.21 1139.34 1108.57 1139.06 1109.92C1137.95 1115.21 1136.53 1120.44 1134.76 1125.55C1126.96 1148.2 1112.73 1168.1 1094.26 1183.3C1070.8 1202.59 1041.67 1213.81 1012.09 1219.52C995.581 1222.72 978.753 1224.25 961.952 1224.52C937.638 1224.91 913.063 1222.73 889.701 1215.71C876.549 1211.75 863.865 1206.22 852.105 1199.11C824.748 1182.56 803.551 1158.15 785.014 1132.46C768.354 1109.37 753.271 1085.17 737.413 1061.52C732.364 1054 727.183 1046.52 721.9 1039.16C718.914 1035 715.946 1030.82 712.828 1026.76C710.056 1023.16 707.153 1019.69 704.279 1016.17C700.06 1011 695.832 1005.8 691.622 1000.62C677.099 982.757 662.613 964.855 648.921 946.346C643.545 939.094 635.144 935.417 626.753 935.781Z" fill="#000000" fill-rule="evenodd" opacity="1" stroke="none"/>
</g>
<g filter="url(#Filter_10)" vectornator:shadowAngle="1.0472" vectornator:shadowColor="#000000" vectornator:shadowOffset="49" vectornator:shadowOpacity="0.34718" vectornator:shadowRadius="10">
<path d="M325.37 687.394C420.219 447.156 779.657 593.255 694.096 862.736C623.72 1084.42 205.966 989.822 325.37 687.394Z" fill="#ffffff" fill-opacity="0" fill-rule="evenodd" opacity="1" stroke="none"/>
<path d="M499.265 543.656C480.691 543.199 462.08 545.131 444.048 549.667C420.499 555.584 398.154 566.01 378.507 580.291C364.581 590.417 352.055 602.43 341.2 615.786C330.924 628.452 322.066 642.312 314.749 656.882C312.21 661.941 309.811 667.075 307.599 672.283C305.966 674.215 304.519 676.362 303.548 678.844C303.091 680.03 303.362 679.628 303.082 680.039C302.83 680.412 302.746 680.879 302.587 681.299C302.428 681.719 302.279 682.139 302.12 682.55C301.803 683.38 301.467 684.23 301.159 685.061C300.076 687.945 299.04 690.819 298.032 693.722C293.785 705.977 290.173 718.456 287.364 731.113C283.1 750.284 280.704 769.95 280.681 789.569C280.658 809.189 282.997 828.77 288.176 847.82C290.883 857.761 294.355 867.533 298.536 876.951C304.09 889.486 310.959 901.433 318.949 912.568C367.157 979.723 453.307 1013.15 534.472 1006.84C579.712 1003.32 624.336 987.172 658.898 957.285C678.611 940.233 694.562 919.083 705.707 895.534C712.679 880.815 717.616 865.246 721.49 849.444C726.707 828.182 729.647 806.323 729.806 784.436C729.853 777.137 729.601 769.847 729.013 762.558C726.194 727.193 715.526 692.574 697.549 661.96C659.897 597.847 591.827 553.074 517.811 544.907C511.66 544.235 505.454 543.805 499.265 543.656ZM490.221 588.103C550.274 586.843 609.673 617.737 645.803 665.283C664.629 690.063 677.108 719.315 681.999 750.041C686.89 780.796 684.23 812.334 676.278 842.332C673.748 851.881 670.827 861.345 666.916 870.417C660.495 885.332 651.674 899.193 640.67 911.14C615.777 938.142 581.187 953.766 545.206 959.087C508.711 964.491 470.732 959.703 436.525 946.02C415.636 937.675 396.045 925.831 379.412 910.645C369.659 901.741 360.95 891.698 353.661 880.684C347.818 871.864 342.871 862.428 338.96 852.599C326.5 821.35 325.006 786.974 330.56 754.073C332.884 740.269 336.412 726.67 340.827 713.379C342.152 709.393 343.571 705.417 345.055 701.478C345.466 700.386 345.886 699.313 346.306 698.212C346.455 697.848 346.287 698.221 347.183 695.944C348.042 693.75 348.434 691.491 348.611 689.261C349.153 688.01 349.657 686.769 350.217 685.527C354.603 675.82 359.718 666.449 365.589 657.554C374.559 643.965 385.423 631.579 398.051 621.275C420.938 602.598 448.864 591.556 478.237 588.812C482.231 588.429 486.217 588.196 490.221 588.103Z" fill="#000000" fill-rule="evenodd" opacity="1" stroke="none"/>
</g>
<g filter="url(#Filter_11)" vectornator:shadowAngle="1.0472" vectornator:shadowColor="#000000" vectornator:shadowOffset="49" vectornator:shadowOpacity="0.34718" vectornator:shadowRadius="10">
<path d="M833.503 695.038C928.351 454.8 1287.79 600.908 1202.24 870.38C1131.85 1092.07 714.098 997.467 833.503 695.038Z" fill="#ffffff" fill-opacity="0" fill-rule="evenodd" opacity="1" stroke="none"/>
<path d="M1007.43 551.3C988.852 550.843 970.231 552.803 952.208 557.339C928.659 563.257 906.286 573.654 886.639 587.935C872.713 598.052 860.188 610.102 849.333 623.459C839.047 636.124 830.199 649.947 822.881 664.527C820.342 669.585 817.934 674.71 815.731 679.927C814.089 681.859 812.651 684.025 811.681 686.517C811.214 687.702 811.494 687.263 811.214 687.683C810.962 688.057 810.906 688.523 810.747 688.943C810.579 689.354 810.411 689.774 810.243 690.194C809.926 691.025 809.627 691.865 809.31 692.705C808.237 695.58 807.173 698.454 806.165 701.366C801.908 713.621 798.306 726.119 795.487 738.785C791.231 757.947 788.86 777.585 788.841 797.213C788.813 816.833 791.156 836.415 796.336 855.455C799.043 865.405 802.478 875.168 806.659 884.595C812.222 897.121 819.082 909.077 827.081 920.212C875.289 987.368 961.429 1020.79 1042.59 1014.48C1087.84 1010.96 1132.47 994.816 1167.03 964.92C1186.73 947.877 1202.69 926.718 1213.84 903.178C1220.81 888.459 1225.75 872.881 1229.62 857.089C1236.58 828.733 1239.5 799.351 1237.17 770.202C1234.35 734.827 1223.68 700.218 1205.7 669.604C1168.06 605.491 1099.96 560.718 1025.94 552.551C1019.79 551.87 1013.61 551.45 1007.43 551.3ZM998.381 595.775C1058.43 594.515 1117.83 625.381 1153.96 672.927C1172.79 697.708 1185.23 726.959 1190.12 757.686C1195.02 788.44 1192.39 819.969 1184.44 849.976C1181.91 859.525 1178.96 868.98 1175.05 878.061C1168.63 892.977 1159.81 906.837 1148.79 918.784C1123.91 945.786 1089.32 961.411 1053.33 966.731C1016.84 972.126 978.893 967.347 944.685 953.664C923.796 945.31 904.205 933.503 887.572 918.317C877.819 909.413 869.083 899.342 861.784 888.328C855.941 879.508 851.003 870.072 847.083 860.243C834.632 828.985 833.129 794.619 838.683 761.708C841.016 747.904 844.544 734.333 848.95 721.051C850.275 717.056 851.703 713.089 853.178 709.151C853.598 708.059 854.018 706.948 854.438 705.856C854.578 705.492 854.419 705.865 855.315 703.578C856.165 701.394 856.557 699.154 856.743 696.933C857.275 695.682 857.817 694.413 858.377 693.171C862.754 683.455 867.841 674.084 873.712 665.199C882.691 651.609 893.555 639.214 906.184 628.909C929.07 610.233 956.996 599.2 986.36 596.447C990.364 596.074 994.377 595.859 998.381 595.775Z" fill="#000000" fill-rule="evenodd" opacity="1" stroke="none"/>
</g>
</g>
</svg>
